<svg width="24" height="24" viewBox="0 0 24 24" fill="none" xmlns="http://www.w3.org/2000/svg">
<g filter="url(#filter0_d_537_17166)">
<path d="M20.3744 12.1872C20.3744 14.3586 19.5118 16.441 17.9764 17.9764C16.441 19.5118 14.3586 20.3744 12.1872 20.3744C10.0158 20.3744 7.93337 19.5118 6.39797 17.9764C4.86258 16.441 4 14.3586 4 12.1872C4 10.0158 4.86258 7.93337 6.39797 6.39797C7.93337 4.86258 10.0158 4 12.1872 4C14.3586 4 16.441 4.86258 17.9764 6.39797C19.5118 7.93337 20.3744 10.0158 20.3744 12.1872ZM12.1872 8.0936C12.0578 8.09367 11.9299 8.12084 11.8117 8.17335C11.6935 8.22586 11.5876 8.30255 11.5008 8.39848C11.4141 8.49441 11.3484 8.60745 11.3079 8.73032C11.2675 8.85319 11.2533 8.98317 11.2661 9.11188L11.6243 12.7009C11.6364 12.8419 11.7009 12.9733 11.8051 13.069C11.9093 13.1647 12.0457 13.2178 12.1872 13.2178C12.3287 13.2178 12.4651 13.1647 12.5693 13.069C12.6735 12.9733 12.738 12.8419 12.7501 12.7009L13.1083 9.11188C13.1211 8.98317 13.1069 8.85319 13.0665 8.73032C13.026 8.60745 12.9603 8.49441 12.8735 8.39848C12.7868 8.30255 12.6809 8.22586 12.5627 8.17335C12.4444 8.12084 12.3165 8.09367 12.1872 8.0936ZM12.1892 14.234C11.9178 14.234 11.6575 14.3418 11.4656 14.5337C11.2737 14.7257 11.1658 14.986 11.1658 15.2574C11.1658 15.5288 11.2737 15.7891 11.4656 15.981C11.6575 16.173 11.9178 16.2808 12.1892 16.2808C12.4607 16.2808 12.721 16.173 12.9129 15.981C13.1048 15.7891 13.2126 15.5288 13.2126 15.2574C13.2126 14.986 13.1048 14.7257 12.9129 14.5337C12.721 14.3418 12.4607 14.234 12.1892 14.234Z" fill="white"/>
</g>
<defs>
<filter id="filter0_d_537_17166" x="0.58234" y="0.58234" width="23.2103" height="23.2096" filterUnits="userSpaceOnUse" color-interpolation-filters="sRGB">
<feFlood flood-opacity="0" result="BackgroundImageFix"/>
<feColorMatrix in="SourceAlpha" type="matrix" values="0 0 0 0 0 0 0 0 0 0 0 0 0 0 0 0 0 0 127 0" result="hardAlpha"/>
<feMorphology radius="0.37974" operator="dilate" in="SourceAlpha" result="effect1_dropShadow_537_17166"/>
<feOffset/>
<feGaussianBlur stdDeviation="1.51896"/>
<feComposite in2="hardAlpha" operator="out"/>
<feColorMatrix type="matrix" values="0 0 0 0 0 0 0 0 0 0 0 0 0 0 0 0 0 0 0.15 0"/>
<feBlend mode="normal" in2="BackgroundImageFix" result="effect1_dropShadow_537_17166"/>
<feBlend mode="normal" in="SourceGraphic" in2="effect1_dropShadow_537_17166" result="shape"/>
</filter>
</defs>
</svg>
