<svg width="22" height="22" viewBox="0 0 22 22" fill="none" xmlns="http://www.w3.org/2000/svg">
<path d="M19.5833 18.2964L5.35282 4.04565L1.31296 0L0 1.25415L3.49449 4.75363L1.90884 9.34544V17.4367C1.90884 17.705 2.01524 17.9622 2.20465 18.1519C2.39406 18.3416 2.65094 18.4481 2.9188 18.4481H3.92877C4.19663 18.4481 4.45352 18.3416 4.64293 18.1519C4.83233 17.9622 4.93874 17.705 4.93874 17.4367V16.4253H15.1495L19.9266 21.2093L21.2093 19.9248L19.5833 18.2964ZM5.44372 13.3911C5.04193 13.3911 4.6566 13.2313 4.37249 12.9467C4.08838 12.6622 3.92877 12.2763 3.92877 11.874C3.92877 11.4716 4.08838 11.0857 4.37249 10.8012C4.6566 10.5167 5.04193 10.3569 5.44372 10.3569C5.84551 10.3569 6.23084 10.5167 6.51495 10.8012C6.79906 11.0857 6.95867 11.4716 6.95867 11.874C6.95867 12.2763 6.79906 12.6622 6.51495 12.9467C6.23084 13.2313 5.84551 13.3911 5.44372 13.3911ZM3.92877 8.33403L4.71655 5.97744L7.06977 8.33403H3.92877ZM16.5534 3.78268L18.0683 8.33403H12.2105L15.1596 11.2874C15.5434 10.5288 16.4221 10.2153 17.1795 10.5693C17.937 10.9334 18.2501 11.8436 17.8966 12.5921C17.7451 12.8854 17.4926 13.1585 17.1795 13.3102L20.0882 16.223V9.34544L17.9875 3.27697C17.7754 2.67013 17.1997 2.26556 16.5534 2.26556H6.1507L7.66565 3.78268H16.5534Z" fill="#FF1717"/>
</svg>
