<svg width="91" height="61" viewBox="0 0 91 61" fill="none" xmlns="http://www.w3.org/2000/svg">
<path d="M0.125 0.25H90.875V60.75H0.125V0.25ZM45.5 15.375C49.5114 15.375 53.3585 16.9685 56.195 19.805C59.0315 22.6415 60.625 26.4886 60.625 30.5C60.625 34.5114 59.0315 38.3585 56.195 41.195C53.3585 44.0315 49.5114 45.625 45.5 45.625C41.4886 45.625 37.6415 44.0315 34.805 41.195C31.9685 38.3585 30.375 34.5114 30.375 30.5C30.375 26.4886 31.9685 22.6415 34.805 19.805C37.6415 16.9685 41.4886 15.375 45.5 15.375ZM20.2917 10.3333C20.2917 13.0076 19.2293 15.5723 17.3383 17.4633C15.4473 19.3543 12.8826 20.4167 10.2083 20.4167V40.5833C12.8826 40.5833 15.4473 41.6457 17.3383 43.5367C19.2293 45.4277 20.2917 47.9924 20.2917 50.6667H70.7083C70.7083 47.9924 71.7707 45.4277 73.6617 43.5367C75.5527 41.6457 78.1174 40.5833 80.7917 40.5833V20.4167C78.1174 20.4167 75.5527 19.3543 73.6617 17.4633C71.7707 15.5723 70.7083 13.0076 70.7083 10.3333H20.2917Z" fill="#0C973A"/>
</svg>
