<svg width="12" height="12" viewBox="0 0 12 12" fill="none" xmlns="http://www.w3.org/2000/svg">
<path fill-rule="evenodd" clip-rule="evenodd" d="M2.42418 1.3855C3.59151 1.21386 4.78556 1.125 6.00014 1.125C7.21461 1.125 8.40856 1.21385 9.57579 1.38546C10.565 1.53088 11.25 2.39722 11.25 3.37028V6.37973C11.25 7.35278 10.565 8.21912 9.57579 8.36455C9.00271 8.4488 8.42319 8.51311 7.83794 8.55674C7.77572 8.56138 7.72153 8.59374 7.68952 8.64176L6.31202 10.708C6.24247 10.8123 6.12538 10.875 6 10.875C5.87462 10.875 5.75753 10.8123 5.68798 10.708L4.31046 8.64173C4.27845 8.59371 4.22426 8.56136 4.16204 8.55672C3.57679 8.51307 2.99726 8.44876 2.42418 8.36449C1.43502 8.21905 0.75 7.35272 0.75 6.37967V3.37032C0.75 2.39728 1.43502 1.53094 2.42418 1.3855ZM3.375 4.125C3.375 3.91789 3.54289 3.75 3.75 3.75H8.25C8.45711 3.75 8.625 3.91789 8.625 4.125C8.625 4.33211 8.45711 4.5 8.25 4.5H3.75C3.54289 4.5 3.375 4.33211 3.375 4.125ZM3.75 5.25C3.54289 5.25 3.375 5.41789 3.375 5.625C3.375 5.83211 3.54289 6 3.75 6H6C6.20711 6 6.375 5.83211 6.375 5.625C6.375 5.41789 6.20711 5.25 6 5.25H3.75Z" fill="#0F172A"/>
</svg>
