<svg width="6" height="6" viewBox="0 0 6 6" fill="none" xmlns="http://www.w3.org/2000/svg">
<path d="M0 4.82081V5.83415C0 5.92748 0.0733333 6.00081 0.166667 6.00081H1.18C1.22333 6.00081 1.26667 5.98415 1.29667 5.95081L4.93667 2.31415L3.68667 1.06415L0.05 4.70082C0.0166667 4.73415 0 4.77415 0 4.82081ZM5.90333 0.877481L5.12333 0.0974813C5.0925 0.0665801 5.05587 0.0420643 5.01554 0.0253371C4.97522 0.00860999 4.93199 0 4.88833 0C4.84468 0 4.80145 0.00860999 4.76113 0.0253371C4.7208 0.0420643 4.68417 0.0665801 4.65333 0.0974813L4.04333 0.707481L5.29333 1.95748L5.90333 1.34748C5.93423 1.31664 5.95875 1.28001 5.97548 1.23969C5.9922 1.19937 6.00081 1.15614 6.00081 1.11248C6.00081 1.06883 5.9922 1.0256 5.97548 0.985273C5.95875 0.944949 5.93423 0.908319 5.90333 0.877481Z" fill="black"/>
</svg>
