<svg width="103" height="133" viewBox="0 0 103 133" fill="none" xmlns="http://www.w3.org/2000/svg">
<g clip-path="url(#clip0_278_13639)">
<path d="M22.3143 81.5894C21.8125 81.5899 21.3315 81.7895 20.9768 82.1443C20.622 82.499 20.4224 82.98 20.4219 83.4818V87.9091C20.4224 88.4108 20.622 88.8918 20.9768 89.2466C21.3315 89.6014 21.8125 89.8009 22.3143 89.8015H24.7145C25.2163 89.8009 25.6973 89.6014 26.052 89.2466C26.4068 88.8918 26.6064 88.4108 26.6069 87.9091V83.4818C26.6064 82.98 26.4068 82.499 26.052 82.1443C25.6973 81.7895 25.2163 81.5899 24.7145 81.5894H22.3143Z" fill="#3F3D56"/>
<path d="M66.6821 89.9485H64.2818C63.7411 89.9479 63.2226 89.7328 62.8402 89.3505C62.4579 88.9681 62.2428 88.4496 62.2422 87.9089V83.4816C62.2428 82.9408 62.4579 82.4224 62.8402 82.04C63.2226 81.6576 63.7411 81.4425 64.2818 81.4419H66.6821C67.2229 81.4425 67.7413 81.6576 68.1237 82.04C68.5061 82.4224 68.7211 82.9408 68.7217 83.4816V87.9089C68.7211 88.4496 68.5061 88.9681 68.1237 89.3505C67.7413 89.7328 67.2229 89.9479 66.6821 89.9485Z" fill="#3F3D56"/>
<path d="M65.0951 86.4037H23.7629C21.8819 86.4037 20.3516 85.2948 20.3516 83.9317V75.9838L22.4031 73.8232H66.854L68.5065 75.9883V83.9317C68.5065 85.2948 66.9762 86.4037 65.0951 86.4037Z" fill="#CCCCCC"/>
<path d="M66.6572 77.7995H22.6349L22.1875 70.9398L22.4722 70.2379L24.1269 66.1658H64.8672L67.1047 70.7899L66.6572 77.7995Z" fill="#CCCCCC"/>
<path d="M67.0296 70.8043L66.7011 75.9585H57.0156V72.1296L66.7541 70.2358L67.0296 70.8043Z" fill="white"/>
<path d="M32.1324 72.1297V75.9585H22.5926L22.2656 70.9516L22.544 70.2654L32.1324 72.1297Z" fill="white"/>
<path d="M64.6246 67.3438H24.375L28.6679 53.0341C28.843 52.4431 29.2036 51.9242 29.6963 51.5539C30.1891 51.1836 30.7879 50.9817 31.4043 50.9779L58.0602 50.724C58.7043 50.7178 59.3319 50.9272 59.8431 51.3191C60.3544 51.7109 60.7197 52.2625 60.8811 52.8861L64.6246 67.3438Z" fill="#CCCCCC"/>
<path d="M61.5225 65.9908L27.4634 65.5869C27.4203 65.5864 27.378 65.5758 27.3397 65.5559C27.3015 65.5361 27.2685 65.5075 27.2433 65.4726C27.2182 65.4376 27.2015 65.3973 27.1948 65.3548C27.1881 65.3122 27.1914 65.2687 27.2045 65.2277L30.4696 55.0406C30.4874 54.985 30.5224 54.9366 30.5695 54.9022C30.6166 54.8679 30.6734 54.8494 30.7317 54.8494H58.1262C58.1845 54.8494 58.2413 54.8679 58.2884 54.9022C58.3355 54.9366 58.3704 54.985 58.3883 55.0405L61.7878 65.6315C61.8012 65.673 61.8044 65.7171 61.7974 65.7601C61.7903 65.8032 61.7731 65.8439 61.7472 65.879C61.7213 65.9141 61.6874 65.9426 61.6483 65.962C61.6093 65.9814 61.5662 65.9913 61.5225 65.9908Z" fill="white"/>
<path d="M49.0898 52.4703H39.9096C39.8322 52.4703 39.762 52.3942 39.7264 52.2715C39.691 52.1459 39.6961 52.0123 39.7411 51.8898L40.4981 49.9754C40.5367 49.8778 40.5997 49.8196 40.6666 49.8196H48.3328C48.3997 49.8196 48.4627 49.8778 48.5013 49.9754L49.2583 51.8898C49.3033 52.0123 49.3084 52.1459 49.2729 52.2715C49.2373 52.3942 49.1671 52.4703 49.0898 52.4703Z" fill="#FFCC2A"/>
<path d="M24.4011 67.0493H18.3633V65.7222C18.3638 65.2932 18.5344 64.8818 18.8378 64.5785C19.1411 64.2751 19.5524 64.1045 19.9815 64.104H24.4011V67.0493Z" fill="#CCCCCC"/>
<path d="M70.6393 67.0493H64.6016V64.104H69.0212C69.4502 64.1045 69.8615 64.2751 70.1649 64.5785C70.4682 64.8818 70.6389 65.2932 70.6393 65.7222V67.0493Z" fill="#CCCCCC"/>
<path d="M17.6538 87.7368L-11.8633 98.3403L-11.738 98.6891L17.7791 88.0857L17.6538 87.7368Z" fill="#3F3D56"/>
<path d="M71.6313 88.0474L101.148 98.6509L101.023 98.9997L71.506 88.3962L71.6313 88.0474Z" fill="#3F3D56"/>
<path d="M46.1418 95.426H44.375V93.144H46.1418V95.426ZM46.1418 90.8618H44.375V88.5798H46.1418V90.8618Z" fill="#E6E6E6"/>
<path d="M46.1418 104.879H44.375V102.597H46.1418V104.879ZM46.1418 100.315H44.375V98.0327H46.1418V100.315Z" fill="#E6E6E6"/>
<path d="M44.449 43.1653C49.29 43.1653 53.2144 39.2409 53.2144 34.3999C53.2144 29.5589 49.29 25.6345 44.449 25.6345C39.608 25.6345 35.6836 29.5589 35.6836 34.3999C35.6836 39.2409 39.608 43.1653 44.449 43.1653Z" fill="#FFCC2A"/>
<path d="M43.6118 38.1002L40.9883 34.7269L42.5139 33.5403L43.7562 35.1375L47.9526 30.7075L49.3559 32.0371L43.6118 38.1002Z" fill="white"/>
<path d="M76.3672 46.9875V42.3536C76.3672 40.7068 77.0214 39.1274 78.1859 37.963C79.3504 36.7985 80.9297 36.1443 82.5765 36.1443C84.2234 36.1443 85.8027 36.7985 86.9672 37.963C88.1317 39.1274 88.7859 40.7068 88.7859 42.3536V46.9875C88.7857 47.2086 88.6977 47.4206 88.5413 47.577C88.385 47.7334 88.1729 47.8213 87.9518 47.8216H77.2013C76.9801 47.8213 76.7681 47.7334 76.6118 47.577C76.4554 47.4206 76.3674 47.2086 76.3672 46.9875Z" fill="#2F2E41"/>
<path d="M91.7578 107.292L89.5676 107.898L86.1875 99.739L89.4199 98.8445L91.7578 107.292Z" fill="#FFB8B8"/>
<path d="M87.8312 107.705L92.055 106.536L92.7909 109.196L85.9079 111.101C85.8112 110.751 85.7843 110.386 85.8286 110.027C85.873 109.667 85.9877 109.32 86.1663 109.005C86.345 108.689 86.5839 108.412 86.8696 108.189C87.1552 107.966 87.482 107.802 87.8312 107.705Z" fill="#2F2E41"/>
<path d="M68.9239 108.976H66.6515L65.5703 100.211H68.9243L68.9239 108.976Z" fill="#FFB8B8"/>
<path d="M65.0289 108.327H69.4114V111.086H62.2695C62.2695 110.724 62.3409 110.365 62.4796 110.031C62.6182 109.696 62.8215 109.392 63.0777 109.135C63.334 108.879 63.6381 108.676 63.9729 108.537C64.3077 108.399 64.6665 108.327 65.0289 108.327Z" fill="#2F2E41"/>
<path d="M66.184 59.9916C66.3462 60.2106 66.5544 60.3913 66.7941 60.5211C67.0337 60.6508 67.2988 60.7265 67.5708 60.7427C67.8428 60.7589 68.1151 60.7153 68.3684 60.6149C68.6217 60.5145 68.8499 60.3598 69.037 60.1617L75.0777 62.8786L74.5282 59.4808L68.8761 57.4217C68.5224 57.1295 68.0738 56.9772 67.6154 56.9936C67.1569 57.0101 66.7204 57.1941 66.3886 57.5109C66.0567 57.8277 65.8526 58.2552 65.8149 58.7124C65.7772 59.1696 65.9086 59.6248 66.184 59.9916H66.184Z" fill="#FFB8B8"/>
<path d="M77.7131 80.3724C75.8153 80.3724 73.8505 80.0897 72.1991 79.2489C71.3224 78.8114 70.5455 78.1976 69.9169 77.446C69.2883 76.6944 68.8216 75.8212 68.546 74.881C67.6855 72.1564 68.7704 69.4797 69.8196 66.8913C70.4698 65.2873 71.0839 63.7723 71.2432 62.279L71.2988 61.7488C71.547 59.3674 71.7613 57.3108 72.9479 56.5394C73.563 56.1396 74.3899 56.1168 75.4763 56.4696L85.6791 59.7839L85.3039 79.1516L85.2419 79.1723C85.1885 79.1903 81.5918 80.3724 77.7131 80.3724Z" fill="#2F2E41"/>
<path d="M76.3203 50.4925C76.3203 50.4925 81.3248 49.0096 85.2173 49.5657C85.2173 49.5657 82.993 61.799 83.7344 65.8768C84.4758 69.9546 70.8523 67.4523 73.6326 63.5599L74.5594 58.9261C74.5594 58.9261 72.7059 57.0725 74.3741 54.8483L76.3203 50.4925Z" fill="#FFCC2A"/>
<path d="M73.8593 80.0576L67.6914 78.9011L69.8448 62.3292C69.9896 61.8665 73.3254 51.3668 74.8404 50.7987C75.9404 50.4113 77.0654 50.0988 78.2076 49.8632L78.427 49.8193L77.1903 51.6745L72.2664 63.4731L73.8593 80.0576Z" fill="#2F2E41"/>
<path d="M70.645 106.946L62.6758 105.617L67.148 87.3557L73.8028 62.3816L73.8685 62.8251C73.8737 62.8581 74.4954 66.1206 83.7202 64.673L83.8013 64.6603L83.8237 64.7393L94.9732 104.134L85.8926 105.647L77.6104 76.9052L70.645 106.946Z" fill="#2F2E41"/>
<path d="M81.6914 83.1587L81.6964 83.0185C81.7019 82.8628 82.2502 67.3797 82.0671 61.1528C81.8833 54.9047 83.9062 49.4939 83.9266 49.4399L83.9431 49.3965L83.9878 49.3836C86.6049 48.636 88.8754 50.8675 88.898 50.8901L88.9299 50.9219L88.1845 57.0713L91.3756 79.4327L81.6914 83.1587Z" fill="#2F2E41"/>
<path d="M81.2986 47.7139C83.8128 47.7139 85.8511 45.6756 85.8511 43.1614C85.8511 40.6471 83.8128 38.6089 81.2986 38.6089C78.7843 38.6089 76.7461 40.6471 76.7461 43.1614C76.7461 45.6756 78.7843 47.7139 81.2986 47.7139Z" fill="#FFB8B8"/>
<path d="M74.8945 42.7244C74.896 41.4221 75.414 40.1736 76.3348 39.2528C77.2557 38.3319 78.5042 37.814 79.8064 37.8125H80.7332C82.0355 37.814 83.284 38.3319 84.2048 39.2528C85.1256 40.1736 85.6436 41.4221 85.6451 42.7244V42.8171H83.6865L83.0185 40.9465L82.8849 42.8171H81.8727L81.5356 41.8733L81.4682 42.8171H74.8945V42.7244Z" fill="#2F2E41"/>
<path d="M80.8482 48.3427C80.7563 48.2182 80.7013 48.0702 80.6898 47.9159C80.6782 47.7615 80.7105 47.607 80.7829 47.4702C81.765 45.6022 83.1401 42.1505 81.3149 40.0218L81.1837 39.8689H86.4825V47.8243L81.669 48.6736C81.6202 48.6822 81.5708 48.6865 81.5213 48.6866C81.3899 48.6866 81.2604 48.6554 81.1434 48.5956C81.0264 48.5358 80.9252 48.4492 80.8482 48.3427Z" fill="#2F2E41"/>
<path d="M82.7611 67.9504C83.0257 68.0151 83.3014 68.021 83.5686 67.9676C83.8358 67.9143 84.0881 67.803 84.3077 67.6416C84.5272 67.4802 84.7087 67.2726 84.8394 67.0335C84.97 66.7944 85.0467 66.5295 85.0639 66.2576L91.4462 64.4861L88.8518 62.2241L83.1888 64.2532C82.73 64.2545 82.2877 64.4241 81.9456 64.7298C81.6035 65.0355 81.3855 65.456 81.3327 65.9118C81.28 66.3675 81.3963 66.8267 81.6595 67.2025C81.9228 67.5782 82.3147 67.8443 82.7611 67.9504Z" fill="#FFB8B8"/>
<path d="M85.4118 67.0127L85.0234 63.323L90.3547 60.3816L86.8788 56.174L87.446 51.4476L88.8583 50.8423L88.9023 50.8988C89.5683 51.7551 95.4092 59.2917 95.4092 60.2234C95.4092 61.1803 94.2918 63.9904 92.763 64.7548C91.2884 65.4921 85.7509 66.9252 85.5159 66.9859L85.4118 67.0127Z" fill="#2F2E41"/>
<path d="M113.079 111.334H42.4588C42.4096 111.334 42.3625 111.315 42.3277 111.28C42.293 111.245 42.2734 111.198 42.2734 111.149C42.2734 111.1 42.293 111.052 42.3277 111.018C42.3625 110.983 42.4096 110.963 42.4588 110.963H113.079C113.128 110.963 113.175 110.983 113.21 111.018C113.244 111.052 113.264 111.1 113.264 111.149C113.264 111.198 113.244 111.245 113.21 111.28C113.175 111.315 113.128 111.334 113.079 111.334Z" fill="#CCCCCC"/>
</g>
<defs>
<clipPath id="clip0_278_13639">
<rect width="103" height="131.787" fill="white" transform="translate(0 0.515381)"/>
</clipPath>
</defs>
</svg>
