<svg width="168" height="148" viewBox="0 0 168 148" fill="none" xmlns="http://www.w3.org/2000/svg">
<g filter="url(#filter0_f_1137_7255)">
<path d="M124.751 96.6777C130.599 94.5965 141.164 89.1731 144.871 85.3592C149.164 81.3471 139.67 77.5543 138.537 76.9682C137.404 76.3822 81.9443 52.1515 72.2968 48.4534C62.6493 44.7552 33.1676 54.9826 26.1213 59.357C20.3776 62.9226 24.6621 65.0384 25.4803 65.6398C26.2985 66.2411 72.6315 89.1959 89.2192 96.0828C101.781 101.298 113.274 100.763 124.751 96.6777Z" fill="black" fill-opacity="0.2"/>
</g>
<path fill-rule="evenodd" clip-rule="evenodd" d="M88.05 85.171C87.1474 84.0914 86.3172 82.8369 85.6115 81.4411C84.9604 80.1535 84.4686 78.8511 84.1332 77.5827L80.5215 70.5856L86.3769 67.5148L86.3771 67.5151C86.4132 67.4953 86.4497 67.4761 86.4866 67.4574C89.977 65.6816 95.2444 69.0633 98.2515 75.0106C101.259 80.9579 100.867 87.2187 97.3764 88.9944C97.3528 89.0064 97.3292 89.0182 97.3054 89.0297L91.5907 92.0307L88.05 85.171Z" fill="black"/>
<ellipse cx="7.09416" cy="12.0519" rx="7.09416" ry="12.0519" transform="matrix(-0.890882 0.453219 0.451443 0.892815 87.0312 67.303)" fill="black"/>
<g filter="url(#filter1_i_1137_7255)">
<ellipse cx="5.32087" cy="9.03932" rx="5.32087" ry="9.03932" transform="matrix(-0.890882 0.453219 0.451443 0.892815 86.6133 70.8147)" fill="url(#paint0_linear_1137_7255)"/>
</g>
<g filter="url(#filter2_di_1137_7255)">
<path fill-rule="evenodd" clip-rule="evenodd" d="M85.856 74.8507C86.6435 75.2654 87.4312 75.8991 88.154 76.7102L86.7346 79.4801C86.5174 79.2491 86.2867 79.0591 86.0539 78.9172L85.856 74.8507ZM86.3 83.9732C86.6404 84.0883 86.97 84.089 87.2529 83.9523L89.7103 87.7792C89.596 87.8627 89.4752 87.9371 89.3476 88.002C88.512 88.4272 87.513 88.3783 86.4934 87.947L86.3 83.9732ZM86.1751 87.8003L85.9821 83.8343C85.7075 83.6876 85.4332 83.4725 85.1774 83.2007L83.7878 85.9126C84.5389 86.7485 85.3589 87.3933 86.1751 87.8003ZM85.7348 78.7535L85.5372 74.6949C84.4769 74.2165 83.433 74.1469 82.5652 74.5884C82.3231 74.7115 82.105 74.8692 81.911 75.0574L84.389 78.9166C84.4635 78.8449 84.5472 78.7847 84.6398 78.7375C84.9607 78.5743 85.3435 78.5911 85.7348 78.7535ZM82.0171 83.2992C82.4649 84.1849 82.9933 84.9792 83.5679 85.66L84.9578 82.9475C84.7624 82.7033 84.5823 82.4247 84.4271 82.1179C84.4084 82.0808 84.3901 82.0436 84.3724 82.0063L81.7942 82.8358C81.8648 82.9905 81.9391 83.145 82.0171 83.2992ZM86.9542 79.7333L88.3733 76.9641C88.9369 77.6374 89.4553 78.42 89.8957 79.2911C89.9849 79.4675 90.0692 79.6442 90.1488 79.8211L87.5337 80.6624C87.5178 80.6291 87.5014 80.5958 87.4846 80.5625C87.3295 80.2558 87.1496 79.9774 86.9542 79.7333ZM81.6677 82.5496C81.1363 81.3064 80.8405 80.0638 80.7732 78.9336L83.957 80.5765C83.9947 80.9399 84.0909 81.3287 84.2472 81.7197L81.6677 82.5496ZM87.6597 80.9488C87.8471 81.414 87.9495 81.8764 87.9694 82.2969L91.1517 83.9391C91.1208 82.7553 90.831 81.433 90.2736 80.1078L87.6597 80.9488ZM91.1532 84.29L87.9664 82.6455C87.9337 83.1243 87.7799 83.5246 87.5095 83.7763L89.952 87.5802C90.7224 86.8687 91.1278 85.6912 91.1532 84.29ZM80.7595 78.5764L83.9387 80.217C83.9408 79.8107 84.0241 79.451 84.1861 79.1761L81.6931 75.2935C81.0522 76.0683 80.7368 77.23 80.7595 78.5764Z" fill="#4C4C4C"/>
</g>
<path fill-rule="evenodd" clip-rule="evenodd" d="M80.5274 70.4594L86.3828 67.3886L86.3854 67.3936C86.4233 67.3728 86.4616 67.3526 86.5003 67.3329C89.9907 65.5571 95.2581 68.9389 98.2652 74.8862C101.272 80.8335 100.88 87.0943 97.39 88.87C97.3322 88.8994 97.2738 88.9275 97.215 88.9541L91.5966 91.9044L88.0458 85.0252C87.1502 83.9504 86.3262 82.7033 85.6251 81.3167C84.9788 80.0383 84.4894 78.7454 84.1541 77.4857L80.5274 70.4594Z" fill="black"/>
<path d="M79.7567 84.4996C82.7615 90.4422 88.027 93.8202 91.5175 92.0445C95.008 90.2688 95.4017 84.0119 92.3968 78.0692C89.392 72.1266 83.9574 68.4291 80.4669 70.2048C76.9765 71.9805 76.7519 78.557 79.7567 84.4996Z" fill="#2D2C2C"/>
<g filter="url(#filter3_i_1137_7255)">
<ellipse cx="4.98673" cy="8.71737" rx="4.98673" ry="8.71737" transform="matrix(-0.886357 0.463179 0.438628 0.898638 86.6016 71.1482)" fill="url(#paint1_linear_1137_7255)"/>
</g>
<g filter="url(#filter4_di_1137_7255)">
<path fill-rule="evenodd" clip-rule="evenodd" d="M82.9326 83.3936C84.3929 86.1102 86.6914 87.7169 88.3976 87.255L86.9098 84.2609C86.171 84.2774 85.2829 83.6302 84.6448 82.587L82.9326 83.3936ZM82.5242 82.553C81.3169 79.7862 81.4112 76.9894 82.71 75.8094L84.1993 78.8064C83.7627 79.4395 83.7618 80.5892 84.2263 81.7512L82.5242 82.553ZM87.4912 80.2132C86.821 78.9889 85.8048 78.2339 84.9967 78.3194L83.5176 75.3428C85.2797 74.7861 87.7156 76.5076 89.1912 79.4124L87.4912 80.2132ZM87.87 81.0678L89.5802 80.2622C90.6981 82.9968 90.5477 85.7137 89.2225 86.8234L87.7447 83.8494C88.208 83.2785 88.2589 82.1958 87.87 81.0678Z" fill="#4F4F4F"/>
</g>
<path fill-rule="evenodd" clip-rule="evenodd" d="M34.4121 50.1244L39.6246 48.5019L39.6249 48.5032C39.6565 48.4928 39.6883 48.4828 39.7203 48.4733C42.8193 47.5506 46.5959 51.0821 48.1556 56.3609C49.7152 61.6398 48.4673 66.6671 45.3682 67.5898C45.3376 67.5989 45.3069 67.6076 45.2762 67.6158L40.2194 69.1928L38.3651 63.1042C37.79 62.0905 37.3001 60.9448 36.9329 59.7021C36.5942 58.5555 36.3878 57.4206 36.3042 56.3372L34.4121 50.1244Z" fill="black"/>
<ellipse cx="5.859" cy="9.95164" rx="5.859" ry="9.95164" transform="matrix(-0.957727 0.285128 0.283553 0.959716 40.1758 48.4299)" fill="black"/>
<g filter="url(#filter5_i_1137_7255)">
<ellipse cx="4.39447" cy="7.46414" rx="4.39447" ry="7.46414" transform="matrix(-0.957727 0.285128 0.283553 0.959716 39.3125 51.2175)" fill="url(#paint2_linear_1137_7255)"/>
</g>
<g filter="url(#filter6_di_1137_7255)">
<path fill-rule="evenodd" clip-rule="evenodd" d="M38.0865 54.3804C38.6667 54.835 39.2144 55.4689 39.6826 56.238L38.1183 58.2767C37.9745 58.0544 37.8135 57.864 37.6434 57.7133L38.0865 54.3804ZM37.0923 61.8592C37.3529 62.0055 37.622 62.0565 37.8735 61.9878L39.3007 65.4609C39.1961 65.5113 39.0874 65.5535 38.9748 65.5871C38.2312 65.8084 37.4252 65.6187 36.6596 65.1142L37.0923 61.8592ZM36.4229 64.9472L36.8548 61.6978C36.6556 61.5381 36.4666 61.324 36.3007 61.0674L34.7694 63.063C35.254 63.8513 35.8223 64.4954 36.4229 64.9472ZM37.4084 57.5341L37.8507 54.2068C37.0619 53.6628 36.226 53.452 35.4571 53.681C35.2415 53.7451 35.0404 53.8411 34.8544 53.9656L36.2949 57.4709C36.3665 57.4232 36.444 57.3864 36.5269 57.3617C36.8099 57.2774 37.1163 57.3467 37.4084 57.5341ZM33.7184 60.6753C33.9508 61.4619 34.2623 62.1862 34.6282 62.8251L36.1599 60.829C36.0374 60.6015 35.9325 60.3485 35.8521 60.0762C35.8423 60.043 35.8329 60.0098 35.824 59.9767L33.6063 60.2665C33.6407 60.4024 33.678 60.5387 33.7184 60.6753ZM38.259 58.5151L39.823 56.4769C40.1805 57.1075 40.4852 57.82 40.7135 58.5928C40.7598 58.7495 40.8021 58.906 40.8406 59.0618L38.5918 59.3557C38.5839 59.3265 38.5756 59.2972 38.5669 59.268C38.4865 58.9957 38.3816 58.7426 38.259 58.5151ZM33.546 60.0152C33.2989 58.9262 33.243 57.8727 33.3561 56.9446L35.699 58.7538C35.6757 59.0544 35.6961 59.3844 35.7649 59.7252L33.546 60.0152ZM38.6517 59.6071C38.7349 60.0132 38.7495 60.4043 38.7033 60.7491L41.0434 62.5561C41.1942 61.59 41.1552 60.4728 40.8993 59.3133L38.6517 59.6071ZM40.9925 62.8414L38.6491 61.0318C38.5512 61.4168 38.3662 61.7196 38.1082 61.8836L39.5267 65.3354C40.2589 64.8726 40.7636 63.9763 40.9925 62.8414ZM33.398 56.6524L35.7376 58.459C35.7995 58.1303 35.9201 57.8511 36.0918 57.6521L34.6424 54.1252C34.0075 54.6594 33.5792 55.5558 33.398 56.6524Z" fill="#4C4C4C"/>
</g>
<path fill-rule="evenodd" clip-rule="evenodd" d="M38.3634 63.2439C37.789 62.2309 37.2996 61.0861 36.9328 59.8446C36.5944 58.6991 36.3882 57.5654 36.3044 56.4829L34.412 50.2693L39.5816 48.6602C39.6274 48.6444 39.6736 48.6296 39.7202 48.6158C42.8192 47.6931 46.5958 51.2245 48.1555 56.5034C49.7151 61.7823 48.4672 66.8096 45.3681 67.7323C45.3572 67.7355 45.3463 67.7387 45.3353 67.7419L45.3354 67.7422L40.2193 69.3377L38.3634 63.2439Z" fill="black"/>
<ellipse cx="5.92409" cy="10.0622" rx="5.92409" ry="10.0622" transform="matrix(-0.957727 0.285128 0.283553 0.959716 40.1875 48.3274)" fill="#2C2C2C"/>
<g filter="url(#filter7_i_1137_7255)">
<g filter="url(#filter8_i_1137_7255)">
<ellipse cx="4.12265" cy="7.207" rx="4.12265" ry="7.207" transform="matrix(-0.940504 0.33758 0.350296 0.937403 38.3984 52.2102)" fill="url(#paint3_linear_1137_7255)"/>
</g>
<g filter="url(#filter9_di_1137_7255)">
<path fill-rule="evenodd" clip-rule="evenodd" d="M34.1494 61.6392C35.0369 64.0151 36.7342 65.6252 38.1927 65.512L37.3131 62.8827C36.711 62.778 36.069 62.1429 35.6682 61.2342L34.1494 61.6392ZM33.9019 60.8808C33.2311 58.4874 33.6336 56.2555 34.8379 55.4839L35.7199 58.1204C35.2966 58.5736 35.1666 59.4886 35.4107 60.4785L33.9019 60.8808ZM38.2953 59.7094C37.882 58.6198 37.1224 57.8629 36.4398 57.825L35.5672 55.2167C37.0935 55.0149 38.9117 56.7539 39.7917 59.3105L38.2953 59.7094ZM38.5126 60.4759L40.0192 60.0742C40.6135 62.4318 40.1644 64.5891 38.9357 65.2856L38.0654 62.6843C38.5207 62.2986 38.6957 61.4386 38.5126 60.4759Z" fill="#4F4F4F"/>
</g>
</g>
<g filter="url(#filter10_ii_1137_7255)">
<path fill-rule="evenodd" clip-rule="evenodd" d="M113.081 43.3194C113.14 43.3639 113.203 43.404 113.269 43.4377C113.494 43.5525 113.694 43.631 113.872 43.6693C116.125 44.1565 135.254 53.47 139.517 57.3794C143.664 61.1838 143.561 63.5835 143.514 64.6975C143.507 64.8584 143.501 64.9924 143.509 65.1C143.551 65.6367 143.6 66.7184 143.661 68.0946C143.698 68.9051 143.739 69.8178 143.786 70.7815L143.945 74.0555C143.949 74.3005 143.963 74.55 143.976 74.8047C144.034 75.8865 144.096 77.0626 143.495 78.3838C142.755 80.0125 139.092 86.0305 120.229 92.9813C113.826 95.341 106.16 93.4336 101.253 91.6719C99.2162 91.023 97.6669 90.3767 96.9006 90.0409C96.783 89.9894 96.6898 89.9044 96.6269 89.7991C96.6095 89.77 96.5818 89.7438 96.5509 89.7298C96.5043 89.7086 96.4753 89.6667 96.4688 89.616C96.2573 87.9597 95.744 85.6295 95.0465 83.3196C94.2853 80.9145 93.3277 78.5538 92.33 77.0234C89.947 73.3682 85.0388 68.9562 81.4188 70.4066C77.3104 72.0527 77.9239 78.0467 78.074 79.4778C78.1182 79.8987 78.1808 80.1777 78.2426 80.4533C78.3129 80.7667 78.3822 81.0756 78.4223 81.5836C78.4244 81.6108 78.4247 81.6375 78.4233 81.6636C78.422 81.6882 78.4211 81.7128 78.4227 81.7373C78.4281 81.8188 78.4323 81.9084 78.4354 82.0073C78.4403 82.1651 78.277 82.2705 78.1333 82.2049C78.0803 82.1807 78.0202 82.1808 77.9634 82.1934C77.84 82.2208 77.705 82.2106 77.5756 82.1521L44.4245 67.1777C44.2486 67.0982 44.118 66.942 44.0831 66.7522C43.9535 66.0468 43.9153 65.2204 43.8728 64.2988L43.8728 64.2987C43.7554 61.7538 43.6044 58.4828 41.4011 55.0284C39.3871 51.8709 36.5787 49.8527 34.1616 50.7425C31.7446 51.6324 31.2057 54.3086 31.1435 55.7876C31.0825 57.24 31.2252 58.5632 31.3079 59.3306C31.3413 59.6395 31.3649 59.8583 31.3615 59.9593C31.35 60.3111 27.6679 57.4419 27.3843 56.2942C26.5212 52.8011 26.2163 49.5055 26.4049 45.9081C26.4358 45.3196 26.5794 43.8301 26.7159 43.2403C26.7366 43.1506 26.7453 43.059 26.7353 42.9676C26.6015 41.7427 26.7281 39.9272 27.0269 39.1462C27.0537 39.0763 27.0795 39.0028 27.1066 38.9256C27.4229 38.0251 27.917 36.6188 32.1477 34.474C38.1552 31.4285 54.5799 24.5004 55.22 24.3259C56.7322 23.9139 58.6974 23.9636 60.2883 24.0039C61.2218 24.0276 62.0264 24.0479 62.5351 23.9698C69.884 22.8415 78.4965 23.445 90.0737 28.5967C91.6136 29.1639 93.1408 29.8221 94.626 30.5858C98.3287 32.4898 101.473 34.5493 104.099 36.4593C107.182 38.5838 109.572 40.5129 111.285 41.8964L111.285 41.8964L111.286 41.8964C112.002 42.4746 112.6 42.9574 113.081 43.3194Z" fill="url(#paint4_linear_1137_7255)"/>
</g>
<g filter="url(#filter11_ddi_1137_7255)">
<path d="M84.1351 57.5707C79.9452 56.0704 77.3653 50.6007 70.8154 44.366C70.6553 44.2136 70.6968 43.9454 70.8977 43.8531L95.8492 32.393C95.8947 32.3721 95.9434 32.3626 95.9927 32.3711C96.4508 32.4504 99.126 33.1487 106.702 39.1839C110.51 42.2177 111.282 43.0186 113.231 44.1985C113.539 44.3851 113.509 44.8306 112.456 45.7875C109.102 48.8382 90.3308 59.7892 84.1351 57.5707Z" fill="url(#paint5_linear_1137_7255)"/>
</g>
<g filter="url(#filter12_di_1137_7255)">
<path d="M54.1143 37.3478C48.633 35.9114 47.2433 35.9694 43.5061 35.9406C40.9346 35.9209 36.8814 36.4983 36.4934 37.6746C36.1054 38.8509 41.2114 42.2375 43.3068 43.2673C44.3309 43.7707 79.5735 59.3382 78.3803 57.3537C76.9103 54.9087 70.3578 48.0389 68.0966 45.2135C64.3267 40.5029 59.5956 38.7842 54.1143 37.3478Z" fill="url(#paint6_linear_1137_7255)"/>
</g>
<g filter="url(#filter13_di_1137_7255)">
<path d="M41.714 34.5436L63.9141 24.2158C63.9141 24.2158 63.4151 24.4195 60.6339 24.5138C59.6634 24.5468 36.6275 35.3543 36.4631 35.5136L41.714 34.5436Z" fill="url(#paint7_linear_1137_7255)"/>
</g>
<g filter="url(#filter14_f_1137_7255)">
<path d="M95.1446 69.5029C86.2496 65.8827 81.1149 61.0446 75.649 56.6599C91.479 60.5276 124.634 69.0638 124.154 69.7476C123.554 70.6025 121.256 71.6938 113.487 72.5988C105.838 73.4898 96.163 69.9174 95.1446 69.5029Z" fill="url(#paint8_linear_1137_7255)" fill-opacity="0.21"/>
</g>
<g filter="url(#filter15_f_1137_7255)">
<path d="M127.797 48.5674C127.283 48.185 120.759 42.0508 115.954 39.0729C120.162 46.3868 129.719 62.2643 130.53 62.143C131.543 61.9915 136.162 60.8917 137.38 57.6534C138.58 54.4652 128.44 49.0453 127.797 48.5674Z" fill="url(#paint9_linear_1137_7255)" fill-opacity="0.13"/>
</g>
<g filter="url(#filter16_di_1137_7255)">
<path d="M63.6099 58.8918C63.6041 58.7725 63.5308 58.667 63.4211 58.6201L60.3844 57.3216C60.1735 57.2314 59.9414 57.3931 59.9525 57.6225L59.9759 58.1018C59.9817 58.2212 60.0552 58.3269 60.1651 58.3737L63.2015 59.6663C63.4124 59.7561 63.6441 59.5944 63.633 59.3652L63.6099 58.8918Z" fill="#FFD726"/>
</g>
<g filter="url(#filter17_di_1137_7255)">
<path d="M46.606 52.3534C46.6002 52.2342 46.5269 52.1286 46.4172 52.0817L43.3805 50.7833C43.1696 50.6931 42.9375 50.8548 42.9486 51.0842L42.972 51.5635C42.9778 51.6829 43.0513 51.7886 43.1612 51.8354L46.1976 53.128C46.4085 53.2178 46.6402 53.0561 46.6291 52.8269L46.606 52.3534Z" fill="#FFD726"/>
</g>
<g filter="url(#filter18_f_1137_7255)">
<path d="M74.8528 79.2175L45.9929 66.7889C45.8341 66.7205 45.7111 66.5897 45.6534 66.4267C44.7728 63.9369 43.156 59.1717 43.0775 58.1534C42.976 56.8355 77.3431 71.1812 76.3126 74.2242C75.7804 75.7956 75.7456 77.3026 75.8652 78.3984C75.9238 78.9353 75.3489 79.4312 74.8528 79.2175Z" fill="url(#paint10_linear_1137_7255)" fill-opacity="0.12"/>
</g>
<path d="M100.891 52.9412L80.3623 39.4618C78.1217 40.1871 73.0673 42.752 72.1007 43.1698C70.8484 43.7111 70.6493 43.9885 70.6493 43.9885C70.6681 44.3737 70.8729 44.5326 71.5214 45.1044C72.4512 45.9241 72.8464 46.3029 75.1824 49.0043C78.5466 52.8946 81.1397 56.5404 83.4945 57.3309C85.3679 57.9597 88.2657 58.4484 92.2805 56.9032C95.8691 55.522 98.048 54.0526 100.891 52.9412Z" fill="#C4C4C4" fill-opacity="0.2"/>
<g opacity="0.17" filter="url(#filter19_f_1137_7255)">
<path d="M136.602 62.6755C131.408 67.213 119.689 73.9083 114.369 75.1013" stroke="url(#paint11_linear_1137_7255)" stroke-width="10.2635" stroke-linecap="round" stroke-linejoin="round"/>
</g>
<g filter="url(#filter20_ddii_1137_7255)">
<path d="M140.81 64.0367C141.784 62.5789 141.44 61.4674 141.201 59.7077C141.194 59.6598 141.18 59.6091 141.163 59.5638C140.645 58.1908 142.756 60.9921 143.06 62.987C143.16 63.6474 143.134 63.9855 143.101 64.6012C143.087 64.8828 142.593 66.6219 142.697 66.9872C142.801 67.3524 142.736 69.9075 142.768 70.2916C142.8 70.6758 141.333 73.617 137.247 76.5838C133.852 79.0483 128.892 80.7989 128.379 80.8983C127.867 80.9976 127.277 79.2908 126.898 79.2134C125.905 79.0107 123.061 80.2157 121.993 80.5402C120.747 80.9188 117.839 81.7935 114.602 81.5367C110.598 81.2192 109.967 80.7965 106.212 78.9822C103.833 77.8325 102.041 75.5144 101.273 74.0898C101.065 73.7045 101.403 73.3362 101.825 73.4534C104.404 74.1701 109.729 75.7904 115.668 76.1088C124.493 76.5818 131.226 72.0704 132.19 71.4221C136.245 68.6967 138.393 67.6574 140.81 64.0367Z" fill="#272727"/>
</g>
<mask id="mask0_1137_7255" style="mask-type:alpha" maskUnits="userSpaceOnUse" x="101" y="59" width="43" height="23">
<path d="M140.793 64.0131C141.564 62.857 141.548 61.5556 141.288 60.4244C141.147 59.8085 141.738 59.4356 142.087 59.9627C142.951 61.2685 143.346 62.3948 143.473 63.0206C143.574 63.6809 143.578 64.1032 143.546 64.7189C143.532 65.0005 142.578 66.5971 142.681 66.9623C142.785 67.3275 142.723 69.8826 142.755 70.2667C142.787 70.6509 141.321 73.593 137.237 76.5624C133.845 79.0291 128.885 80.7829 128.373 80.8826C127.86 80.9823 127.269 79.2758 126.89 79.1986C125.897 78.9966 123.054 80.2035 121.986 80.5286C120.74 80.908 117.833 81.7846 114.596 81.5299C110.592 81.2149 109.961 80.7926 106.205 78.9808C103.824 77.8325 102.031 75.5156 101.262 74.0916C101.054 73.7063 101.391 73.3378 101.813 73.4548C104.393 74.1697 109.719 75.7867 115.658 76.1012C124.484 76.5686 131.214 72.0529 132.178 71.404C136.23 68.676 138.378 67.6353 140.793 64.0131Z" fill="#999999"/>
</mask>
<g mask="url(#mask0_1137_7255)">
<g filter="url(#filter21_d_1137_7255)">
<path d="M107.528 74.3415L119.352 73.9445C119.353 73.9468 119.354 73.9491 119.355 73.9515C119.392 74.0447 119.441 74.1803 119.483 74.3463C119.569 74.68 119.628 75.1264 119.535 75.5957C119.444 76.06 119.202 76.5565 118.668 76.9983C118.13 77.4433 117.285 77.8419 115.975 78.0831C115.197 78.2264 114.113 78.2753 112.989 78.1181C111.865 77.9609 110.717 77.5998 109.798 76.9372C109.301 76.5789 108.677 75.8539 108.165 75.1975C107.912 74.8731 107.692 74.5721 107.535 74.352C107.533 74.3485 107.53 74.345 107.528 74.3415Z" stroke="white" stroke-opacity="0.9" stroke-width="0.462772"/>
</g>
<g filter="url(#filter22_d_1137_7255)">
<path d="M141.236 60.3041C141.237 60.3061 141.238 60.3081 141.239 60.3101C141.358 60.4968 141.507 60.7672 141.631 61.0998C141.878 61.7646 142.021 62.668 141.619 63.6556C141.505 63.9368 141.332 64.1286 141.151 64.2124C140.983 64.2902 140.775 64.2902 140.533 64.1245C140.366 64.0104 140.141 63.9727 139.937 63.9623C139.724 63.9514 139.494 63.9687 139.285 63.9948C139.196 64.006 139.109 64.019 139.028 64.0324L141.236 60.3041Z" stroke="white" stroke-opacity="0.9" stroke-width="0.462772"/>
</g>
</g>
<defs>
<filter id="filter0_f_1137_7255" x="21.8208" y="46.3073" width="125.511" height="54.9158" filterUnits="userSpaceOnUse" color-interpolation-filters="sRGB">
<feFlood flood-opacity="0" result="BackgroundImageFix"/>
<feBlend mode="normal" in="SourceGraphic" in2="BackgroundImageFix" result="shape"/>
<feGaussianBlur stdDeviation="0.677509" result="effect1_foregroundBlur_1137_7255"/>
</filter>
<filter id="filter1_i_1137_7255" x="79.6992" y="72.8713" width="12.5078" height="16.8506" filterUnits="userSpaceOnUse" color-interpolation-filters="sRGB">
<feFlood flood-opacity="0" result="BackgroundImageFix"/>
<feBlend mode="normal" in="SourceGraphic" in2="BackgroundImageFix" result="shape"/>
<feColorMatrix in="SourceAlpha" type="matrix" values="0 0 0 0 0 0 0 0 0 0 0 0 0 0 0 0 0 0 127 0" result="hardAlpha"/>
<feMorphology radius="0.155508" operator="erode" in="SourceAlpha" result="effect1_innerShadow_1137_7255"/>
<feOffset/>
<feGaussianBlur stdDeviation="0.0777541"/>
<feComposite in2="hardAlpha" operator="arithmetic" k2="-1" k3="1"/>
<feColorMatrix type="matrix" values="0 0 0 0 0 0 0 0 0 0 0 0 0 0 0 0 0 0 0.25 0"/>
<feBlend mode="normal" in2="shape" result="effect1_innerShadow_1137_7255"/>
</filter>
<filter id="filter2_di_1137_7255" x="80.2913" y="74.2624" width="10.9544" height="14.3455" filterUnits="userSpaceOnUse" color-interpolation-filters="sRGB">
<feFlood flood-opacity="0" result="BackgroundImageFix"/>
<feColorMatrix in="SourceAlpha" type="matrix" values="0 0 0 0 0 0 0 0 0 0 0 0 0 0 0 0 0 0 127 0" result="hardAlpha"/>
<feOffset dy="0.0622032"/>
<feGaussianBlur stdDeviation="0.0466524"/>
<feColorMatrix type="matrix" values="0 0 0 0 1 0 0 0 0 1 0 0 0 0 1 0 0 0 0.41 0"/>
<feBlend mode="normal" in2="BackgroundImageFix" result="effect1_dropShadow_1137_7255"/>
<feBlend mode="normal" in="SourceGraphic" in2="effect1_dropShadow_1137_7255" result="shape"/>
<feColorMatrix in="SourceAlpha" type="matrix" values="0 0 0 0 0 0 0 0 0 0 0 0 0 0 0 0 0 0 127 0" result="hardAlpha"/>
<feOffset dx="-0.466524" dy="0.311016"/>
<feGaussianBlur stdDeviation="0.233262"/>
<feComposite in2="hardAlpha" operator="arithmetic" k2="-1" k3="1"/>
<feColorMatrix type="matrix" values="0 0 0 0 0 0 0 0 0 0 0 0 0 0 0 0 0 0 0.25 0"/>
<feBlend mode="normal" in2="shape" result="effect2_innerShadow_1137_7255"/>
</filter>
<filter id="filter3_i_1137_7255" x="80.1602" y="73.1223" width="11.6914" height="16.3386" filterUnits="userSpaceOnUse" color-interpolation-filters="sRGB">
<feFlood flood-opacity="0" result="BackgroundImageFix"/>
<feBlend mode="normal" in="SourceGraphic" in2="BackgroundImageFix" result="shape"/>
<feColorMatrix in="SourceAlpha" type="matrix" values="0 0 0 0 0 0 0 0 0 0 0 0 0 0 0 0 0 0 127 0" result="hardAlpha"/>
<feMorphology radius="0.385643" operator="erode" in="SourceAlpha" result="effect1_innerShadow_1137_7255"/>
<feOffset/>
<feGaussianBlur stdDeviation="0.192821"/>
<feComposite in2="hardAlpha" operator="arithmetic" k2="-1" k3="1"/>
<feColorMatrix type="matrix" values="0 0 0 0 0 0 0 0 0 0 0 0 0 0 0 0 0 0 0.25 0"/>
<feBlend mode="normal" in2="shape" result="effect1_innerShadow_1137_7255"/>
</filter>
<filter id="filter4_di_1137_7255" x="81.1826" y="75.2059" width="9.30995" height="12.4567" filterUnits="userSpaceOnUse" color-interpolation-filters="sRGB">
<feFlood flood-opacity="0" result="BackgroundImageFix"/>
<feColorMatrix in="SourceAlpha" type="matrix" values="0 0 0 0 0 0 0 0 0 0 0 0 0 0 0 0 0 0 127 0" result="hardAlpha"/>
<feOffset dy="0.13152"/>
<feGaussianBlur stdDeviation="0.0822002"/>
<feColorMatrix type="matrix" values="0 0 0 0 1 0 0 0 0 1 0 0 0 0 1 0 0 0 0.59 0"/>
<feBlend mode="normal" in2="BackgroundImageFix" result="effect1_dropShadow_1137_7255"/>
<feBlend mode="normal" in="SourceGraphic" in2="effect1_dropShadow_1137_7255" result="shape"/>
<feColorMatrix in="SourceAlpha" type="matrix" values="0 0 0 0 0 0 0 0 0 0 0 0 0 0 0 0 0 0 127 0" result="hardAlpha"/>
<feOffset dx="-0.493201" dy="0.328801"/>
<feGaussianBlur stdDeviation="0.246601"/>
<feComposite in2="hardAlpha" operator="arithmetic" k2="-1" k3="1"/>
<feColorMatrix type="matrix" values="0 0 0 0 0 0 0 0 0 0 0 0 0 0 0 0 0 0 0.25 0"/>
<feBlend mode="normal" in2="shape" result="effect2_innerShadow_1137_7255"/>
</filter>
<filter id="filter5_i_1137_7255" x="32.5078" y="52.3606" width="9.42578" height="14.5469" filterUnits="userSpaceOnUse" color-interpolation-filters="sRGB">
<feFlood flood-opacity="0" result="BackgroundImageFix"/>
<feBlend mode="normal" in="SourceGraphic" in2="BackgroundImageFix" result="shape"/>
<feColorMatrix in="SourceAlpha" type="matrix" values="0 0 0 0 0 0 0 0 0 0 0 0 0 0 0 0 0 0 127 0" result="hardAlpha"/>
<feMorphology radius="0.128421" operator="erode" in="SourceAlpha" result="effect1_innerShadow_1137_7255"/>
<feOffset/>
<feGaussianBlur stdDeviation="0.0642103"/>
<feComposite in2="hardAlpha" operator="arithmetic" k2="-1" k3="1"/>
<feColorMatrix type="matrix" values="0 0 0 0 0 0 0 0 0 0 0 0 0 0 0 0 0 0 0.25 0"/>
<feBlend mode="normal" in2="shape" result="effect1_innerShadow_1137_7255"/>
</filter>
<filter id="filter6_di_1137_7255" x="32.9155" y="53.5639" width="8.29435" height="12.3714" filterUnits="userSpaceOnUse" color-interpolation-filters="sRGB">
<feFlood flood-opacity="0" result="BackgroundImageFix"/>
<feColorMatrix in="SourceAlpha" type="matrix" values="0 0 0 0 0 0 0 0 0 0 0 0 0 0 0 0 0 0 127 0" result="hardAlpha"/>
<feOffset dy="0.0513682"/>
<feGaussianBlur stdDeviation="0.0385262"/>
<feColorMatrix type="matrix" values="0 0 0 0 1 0 0 0 0 1 0 0 0 0 1 0 0 0 0.41 0"/>
<feBlend mode="normal" in2="BackgroundImageFix" result="effect1_dropShadow_1137_7255"/>
<feBlend mode="normal" in="SourceGraphic" in2="effect1_dropShadow_1137_7255" result="shape"/>
<feColorMatrix in="SourceAlpha" type="matrix" values="0 0 0 0 0 0 0 0 0 0 0 0 0 0 0 0 0 0 127 0" result="hardAlpha"/>
<feOffset dx="-0.385262" dy="0.256841"/>
<feGaussianBlur stdDeviation="0.192631"/>
<feComposite in2="hardAlpha" operator="arithmetic" k2="-1" k3="1"/>
<feColorMatrix type="matrix" values="0 0 0 0 0 0 0 0 0 0 0 0 0 0 0 0 0 0 0.25 0"/>
<feBlend mode="normal" in2="shape" result="effect2_innerShadow_1137_7255"/>
</filter>
<filter id="filter7_i_1137_7255" x="32.418" y="53.4587" width="9.25391" height="13.7981" filterUnits="userSpaceOnUse" color-interpolation-filters="sRGB">
<feFlood flood-opacity="0" result="BackgroundImageFix"/>
<feBlend mode="normal" in="SourceGraphic" in2="BackgroundImageFix" result="shape"/>
<feColorMatrix in="SourceAlpha" type="matrix" values="0 0 0 0 0 0 0 0 0 0 0 0 0 0 0 0 0 0 127 0" result="hardAlpha"/>
<feMorphology radius="0.385643" operator="erode" in="SourceAlpha" result="effect1_innerShadow_1137_7255"/>
<feOffset/>
<feGaussianBlur stdDeviation="0.192821"/>
<feComposite in2="hardAlpha" operator="arithmetic" k2="-1" k3="1"/>
<feColorMatrix type="matrix" values="0 0 0 0 0 0 0 0 0 0 0 0 0 0 0 0 0 0 0.25 0"/>
<feBlend mode="normal" in2="shape" result="effect1_innerShadow_1137_7255"/>
</filter>
<filter id="filter8_i_1137_7255" x="32.418" y="53.4587" width="9.25391" height="13.7981" filterUnits="userSpaceOnUse" color-interpolation-filters="sRGB">
<feFlood flood-opacity="0" result="BackgroundImageFix"/>
<feBlend mode="normal" in="SourceGraphic" in2="BackgroundImageFix" result="shape"/>
<feColorMatrix in="SourceAlpha" type="matrix" values="0 0 0 0 0 0 0 0 0 0 0 0 0 0 0 0 0 0 127 0" result="hardAlpha"/>
<feMorphology radius="0.115577" operator="erode" in="SourceAlpha" result="effect1_innerShadow_1137_7255"/>
<feOffset/>
<feGaussianBlur stdDeviation="0.0577885"/>
<feComposite in2="hardAlpha" operator="arithmetic" k2="-1" k3="1"/>
<feColorMatrix type="matrix" values="0 0 0 0 0 0 0 0 0 0 0 0 0 0 0 0 0 0 0.25 0"/>
<feBlend mode="normal" in2="shape" result="effect1_innerShadow_1137_7255"/>
</filter>
<filter id="filter9_di_1137_7255" x="33.0849" y="55.168" width="7.36073" height="10.6783" filterUnits="userSpaceOnUse" color-interpolation-filters="sRGB">
<feFlood flood-opacity="0" result="BackgroundImageFix"/>
<feColorMatrix in="SourceAlpha" type="matrix" values="0 0 0 0 0 0 0 0 0 0 0 0 0 0 0 0 0 0 127 0" result="hardAlpha"/>
<feOffset dy="0.13152"/>
<feGaussianBlur stdDeviation="0.0822002"/>
<feColorMatrix type="matrix" values="0 0 0 0 1 0 0 0 0 1 0 0 0 0 1 0 0 0 0.59 0"/>
<feBlend mode="normal" in2="BackgroundImageFix" result="effect1_dropShadow_1137_7255"/>
<feBlend mode="normal" in="SourceGraphic" in2="effect1_dropShadow_1137_7255" result="shape"/>
<feColorMatrix in="SourceAlpha" type="matrix" values="0 0 0 0 0 0 0 0 0 0 0 0 0 0 0 0 0 0 127 0" result="hardAlpha"/>
<feOffset dx="-0.493201" dy="0.328801"/>
<feGaussianBlur stdDeviation="0.246601"/>
<feComposite in2="hardAlpha" operator="arithmetic" k2="-1" k3="1"/>
<feColorMatrix type="matrix" values="0 0 0 0 0 0 0 0 0 0 0 0 0 0 0 0 0 0 0.25 0"/>
<feBlend mode="normal" in2="shape" result="effect2_innerShadow_1137_7255"/>
</filter>
<filter id="filter10_ii_1137_7255" x="26.3516" y="20.4048" width="119.974" height="73.6772" filterUnits="userSpaceOnUse" color-interpolation-filters="sRGB">
<feFlood flood-opacity="0" result="BackgroundImageFix"/>
<feBlend mode="normal" in="SourceGraphic" in2="BackgroundImageFix" result="shape"/>
<feColorMatrix in="SourceAlpha" type="matrix" values="0 0 0 0 0 0 0 0 0 0 0 0 0 0 0 0 0 0 127 0" result="hardAlpha"/>
<feOffset dx="2.31386" dy="-3.08514"/>
<feGaussianBlur stdDeviation="9.25543"/>
<feComposite in2="hardAlpha" operator="arithmetic" k2="-1" k3="1"/>
<feColorMatrix type="matrix" values="0 0 0 0 0 0 0 0 0 0 0 0 0 0 0 0 0 0 0.07 0"/>
<feBlend mode="normal" in2="shape" result="effect1_innerShadow_1137_7255"/>
<feColorMatrix in="SourceAlpha" type="matrix" values="0 0 0 0 0 0 0 0 0 0 0 0 0 0 0 0 0 0 127 0" result="hardAlpha"/>
<feOffset dy="-0.385643"/>
<feGaussianBlur stdDeviation="0.771286"/>
<feComposite in2="hardAlpha" operator="arithmetic" k2="-1" k3="1"/>
<feColorMatrix type="matrix" values="0 0 0 0 0 0 0 0 0 0 0 0 0 0 0 0 0 0 0.09 0"/>
<feBlend mode="normal" in2="effect1_innerShadow_1137_7255" result="effect2_innerShadow_1137_7255"/>
</filter>
<filter id="filter11_ddi_1137_7255" x="70.0967" y="31.9014" width="43.6166" height="26.4301" filterUnits="userSpaceOnUse" color-interpolation-filters="sRGB">
<feFlood flood-opacity="0" result="BackgroundImageFix"/>
<feColorMatrix in="SourceAlpha" type="matrix" values="0 0 0 0 0 0 0 0 0 0 0 0 0 0 0 0 0 0 127 0" result="hardAlpha"/>
<feOffset dx="-0.311016" dy="0.155508"/>
<feGaussianBlur stdDeviation="0.155508"/>
<feColorMatrix type="matrix" values="0 0 0 0 1 0 0 0 0 1 0 0 0 0 1 0 0 0 0.28 0"/>
<feBlend mode="normal" in2="BackgroundImageFix" result="effect1_dropShadow_1137_7255"/>
<feColorMatrix in="SourceAlpha" type="matrix" values="0 0 0 0 0 0 0 0 0 0 0 0 0 0 0 0 0 0 127 0" result="hardAlpha"/>
<feOffset dy="-0.155508"/>
<feGaussianBlur stdDeviation="0.155508"/>
<feColorMatrix type="matrix" values="0 0 0 0 1 0 0 0 0 1 0 0 0 0 1 0 0 0 0.56 0"/>
<feBlend mode="normal" in2="effect1_dropShadow_1137_7255" result="effect2_dropShadow_1137_7255"/>
<feBlend mode="normal" in="SourceGraphic" in2="effect2_dropShadow_1137_7255" result="shape"/>
<feColorMatrix in="SourceAlpha" type="matrix" values="0 0 0 0 0 0 0 0 0 0 0 0 0 0 0 0 0 0 127 0" result="hardAlpha"/>
<feOffset dx="-0.155508" dy="0.466524"/>
<feGaussianBlur stdDeviation="0.233262"/>
<feComposite in2="hardAlpha" operator="arithmetic" k2="-1" k3="1"/>
<feColorMatrix type="matrix" values="0 0 0 0 0 0 0 0 0 0 0 0 0 0 0 0 0 0 0.75 0"/>
<feBlend mode="normal" in2="shape" result="effect3_innerShadow_1137_7255"/>
</filter>
<filter id="filter12_di_1137_7255" x="35.8506" y="35.9402" width="42.7203" height="22.2102" filterUnits="userSpaceOnUse" color-interpolation-filters="sRGB">
<feFlood flood-opacity="0" result="BackgroundImageFix"/>
<feColorMatrix in="SourceAlpha" type="matrix" values="0 0 0 0 0 0 0 0 0 0 0 0 0 0 0 0 0 0 127 0" result="hardAlpha"/>
<feOffset dy="0.160816"/>
<feGaussianBlur stdDeviation="0.0804078"/>
<feColorMatrix type="matrix" values="0 0 0 0 0.925374 0 0 0 0 0.925374 0 0 0 0 0.925374 0 0 0 0.37 0"/>
<feBlend mode="normal" in2="BackgroundImageFix" result="effect1_dropShadow_1137_7255"/>
<feBlend mode="normal" in="SourceGraphic" in2="effect1_dropShadow_1137_7255" result="shape"/>
<feColorMatrix in="SourceAlpha" type="matrix" values="0 0 0 0 0 0 0 0 0 0 0 0 0 0 0 0 0 0 127 0" result="hardAlpha"/>
<feOffset dx="-0.622032" dy="0.77754"/>
<feGaussianBlur stdDeviation="0.311016"/>
<feComposite in2="hardAlpha" operator="arithmetic" k2="-1" k3="1"/>
<feColorMatrix type="matrix" values="0 0 0 0 0 0 0 0 0 0 0 0 0 0 0 0 0 0 0.8 0"/>
<feBlend mode="normal" in2="shape" result="effect2_innerShadow_1137_7255"/>
</filter>
<filter id="filter13_di_1137_7255" x="35.8428" y="24.2158" width="28.2321" height="11.9199" filterUnits="userSpaceOnUse" color-interpolation-filters="sRGB">
<feFlood flood-opacity="0" result="BackgroundImageFix"/>
<feColorMatrix in="SourceAlpha" type="matrix" values="0 0 0 0 0 0 0 0 0 0 0 0 0 0 0 0 0 0 127 0" result="hardAlpha"/>
<feOffset dy="0.160816"/>
<feGaussianBlur stdDeviation="0.0804078"/>
<feColorMatrix type="matrix" values="0 0 0 0 0.925374 0 0 0 0 0.925374 0 0 0 0 0.925374 0 0 0 0.37 0"/>
<feBlend mode="normal" in2="BackgroundImageFix" result="effect1_dropShadow_1137_7255"/>
<feBlend mode="normal" in="SourceGraphic" in2="effect1_dropShadow_1137_7255" result="shape"/>
<feColorMatrix in="SourceAlpha" type="matrix" values="0 0 0 0 0 0 0 0 0 0 0 0 0 0 0 0 0 0 127 0" result="hardAlpha"/>
<feOffset dx="-0.622032" dy="0.77754"/>
<feGaussianBlur stdDeviation="0.311016"/>
<feComposite in2="hardAlpha" operator="arithmetic" k2="-1" k3="1"/>
<feColorMatrix type="matrix" values="0 0 0 0 0 0 0 0 0 0 0 0 0 0 0 0 0 0 0.8 0"/>
<feBlend mode="normal" in2="shape" result="effect2_innerShadow_1137_7255"/>
</filter>
<filter id="filter14_f_1137_7255" x="71.2942" y="52.3057" width="57.2202" height="24.7895" filterUnits="userSpaceOnUse" color-interpolation-filters="sRGB">
<feFlood flood-opacity="0" result="BackgroundImageFix"/>
<feBlend mode="normal" in="SourceGraphic" in2="BackgroundImageFix" result="shape"/>
<feGaussianBlur stdDeviation="2.17711" result="effect1_foregroundBlur_1137_7255"/>
</filter>
<filter id="filter15_f_1137_7255" x="113.154" y="36.2739" width="27.1256" height="28.6691" filterUnits="userSpaceOnUse" color-interpolation-filters="sRGB">
<feFlood flood-opacity="0" result="BackgroundImageFix"/>
<feBlend mode="normal" in="SourceGraphic" in2="BackgroundImageFix" result="shape"/>
<feGaussianBlur stdDeviation="1.39957" result="effect1_foregroundBlur_1137_7255"/>
</filter>
<filter id="filter16_di_1137_7255" x="59.876" y="57.1419" width="3.83394" height="2.93516" filterUnits="userSpaceOnUse" color-interpolation-filters="sRGB">
<feFlood flood-opacity="0" result="BackgroundImageFix"/>
<feColorMatrix in="SourceAlpha" type="matrix" values="0 0 0 0 0 0 0 0 0 0 0 0 0 0 0 0 0 0 127 0" result="hardAlpha"/>
<feOffset dy="-0.0771286"/>
<feGaussianBlur stdDeviation="0.0385643"/>
<feColorMatrix type="matrix" values="0 0 0 0 0.78755 0 0 0 0 0.78755 0 0 0 0 0.78755 0 0 0 0.19 0"/>
<feBlend mode="normal" in2="BackgroundImageFix" result="effect1_dropShadow_1137_7255"/>
<feBlend mode="normal" in="SourceGraphic" in2="effect1_dropShadow_1137_7255" result="shape"/>
<feColorMatrix in="SourceAlpha" type="matrix" values="0 0 0 0 0 0 0 0 0 0 0 0 0 0 0 0 0 0 127 0" result="hardAlpha"/>
<feOffset dy="0.385643"/>
<feGaussianBlur stdDeviation="0.192821"/>
<feComposite in2="hardAlpha" operator="arithmetic" k2="-1" k3="1"/>
<feColorMatrix type="matrix" values="0 0 0 0 0 0 0 0 0 0 0 0 0 0 0 0 0 0 0.74 0"/>
<feBlend mode="normal" in2="shape" result="effect2_innerShadow_1137_7255"/>
</filter>
<filter id="filter17_di_1137_7255" x="42.8721" y="50.6036" width="3.83394" height="2.93516" filterUnits="userSpaceOnUse" color-interpolation-filters="sRGB">
<feFlood flood-opacity="0" result="BackgroundImageFix"/>
<feColorMatrix in="SourceAlpha" type="matrix" values="0 0 0 0 0 0 0 0 0 0 0 0 0 0 0 0 0 0 127 0" result="hardAlpha"/>
<feOffset dy="-0.0771286"/>
<feGaussianBlur stdDeviation="0.0385643"/>
<feColorMatrix type="matrix" values="0 0 0 0 0.78755 0 0 0 0 0.78755 0 0 0 0 0.78755 0 0 0 0.19 0"/>
<feBlend mode="normal" in2="BackgroundImageFix" result="effect1_dropShadow_1137_7255"/>
<feBlend mode="normal" in="SourceGraphic" in2="effect1_dropShadow_1137_7255" result="shape"/>
<feColorMatrix in="SourceAlpha" type="matrix" values="0 0 0 0 0 0 0 0 0 0 0 0 0 0 0 0 0 0 127 0" result="hardAlpha"/>
<feOffset dy="0.385643"/>
<feGaussianBlur stdDeviation="0.192821"/>
<feComposite in2="hardAlpha" operator="arithmetic" k2="-1" k3="1"/>
<feColorMatrix type="matrix" values="0 0 0 0 0 0 0 0 0 0 0 0 0 0 0 0 0 0 0.74 0"/>
<feBlend mode="normal" in2="shape" result="effect2_innerShadow_1137_7255"/>
</filter>
<filter id="filter18_f_1137_7255" x="42.1451" y="57.1351" width="35.1239" height="23.0663" filterUnits="userSpaceOnUse" color-interpolation-filters="sRGB">
<feFlood flood-opacity="0" result="BackgroundImageFix"/>
<feBlend mode="normal" in="SourceGraphic" in2="BackgroundImageFix" result="shape"/>
<feGaussianBlur stdDeviation="0.466524" result="effect1_foregroundBlur_1137_7255"/>
</filter>
<filter id="filter19_f_1137_7255" x="107.679" y="55.9886" width="35.6102" height="25.8006" filterUnits="userSpaceOnUse" color-interpolation-filters="sRGB">
<feFlood flood-opacity="0" result="BackgroundImageFix"/>
<feBlend mode="normal" in="SourceGraphic" in2="BackgroundImageFix" result="shape"/>
<feGaussianBlur stdDeviation="0.77754" result="effect1_foregroundBlur_1137_7255"/>
</filter>
<filter id="filter20_ddii_1137_7255" x="101.017" y="58.9086" width="42.3051" height="24.0088" filterUnits="userSpaceOnUse" color-interpolation-filters="sRGB">
<feFlood flood-opacity="0" result="BackgroundImageFix"/>
<feColorMatrix in="SourceAlpha" type="matrix" values="0 0 0 0 0 0 0 0 0 0 0 0 0 0 0 0 0 0 127 0" result="hardAlpha"/>
<feOffset dy="0.145164"/>
<feGaussianBlur stdDeviation="0.096776"/>
<feColorMatrix type="matrix" values="0 0 0 0 0 0 0 0 0 0 0 0 0 0 0 0 0 0 0.57 0"/>
<feBlend mode="normal" in2="BackgroundImageFix" result="effect1_dropShadow_1137_7255"/>
<feColorMatrix in="SourceAlpha" type="matrix" values="0 0 0 0 0 0 0 0 0 0 0 0 0 0 0 0 0 0 127 0" result="hardAlpha"/>
<feOffset dy="-0.096776"/>
<feGaussianBlur stdDeviation="0.096776"/>
<feColorMatrix type="matrix" values="0 0 0 0 0 0 0 0 0 0 0 0 0 0 0 0 0 0 1 0"/>
<feBlend mode="normal" in2="effect1_dropShadow_1137_7255" result="effect2_dropShadow_1137_7255"/>
<feBlend mode="normal" in="SourceGraphic" in2="effect2_dropShadow_1137_7255" result="shape"/>
<feColorMatrix in="SourceAlpha" type="matrix" values="0 0 0 0 0 0 0 0 0 0 0 0 0 0 0 0 0 0 127 0" result="hardAlpha"/>
<feOffset dy="1.33417"/>
<feGaussianBlur stdDeviation="1.35966"/>
<feComposite in2="hardAlpha" operator="arithmetic" k2="-1" k3="1"/>
<feColorMatrix type="matrix" values="0 0 0 0 0 0 0 0 0 0 0 0 0 0 0 0 0 0 1 0"/>
<feBlend mode="normal" in2="shape" result="effect3_innerShadow_1137_7255"/>
<feColorMatrix in="SourceAlpha" type="matrix" values="0 0 0 0 0 0 0 0 0 0 0 0 0 0 0 0 0 0 127 0" result="hardAlpha"/>
<feOffset dy="-0.145385"/>
<feGaussianBlur stdDeviation="0.145385"/>
<feComposite in2="hardAlpha" operator="arithmetic" k2="-1" k3="1"/>
<feColorMatrix type="matrix" values="0 0 0 0 0 0 0 0 0 0 0 0 0 0 0 0 0 0 1 0"/>
<feBlend mode="normal" in2="effect3_innerShadow_1137_7255" result="effect4_innerShadow_1137_7255"/>
</filter>
<filter id="filter21_d_1137_7255" x="107.056" y="73.708" width="13.102" height="5.122" filterUnits="userSpaceOnUse" color-interpolation-filters="sRGB">
<feFlood flood-opacity="0" result="BackgroundImageFix"/>
<feColorMatrix in="SourceAlpha" type="matrix" values="0 0 0 0 0 0 0 0 0 0 0 0 0 0 0 0 0 0 127 0" result="hardAlpha"/>
<feOffset dx="0.154257" dy="0.191616"/>
<feGaussianBlur stdDeviation="0.0958082"/>
<feColorMatrix type="matrix" values="0 0 0 0 1 0 0 0 0 1 0 0 0 0 1 0 0 0 0.24 0"/>
<feBlend mode="normal" in2="BackgroundImageFix" result="effect1_dropShadow_1137_7255"/>
<feBlend mode="normal" in="SourceGraphic" in2="effect1_dropShadow_1137_7255" result="shape"/>
</filter>
<filter id="filter22_d_1137_7255" x="138.525" y="59.8799" width="3.9223" height="4.99749" filterUnits="userSpaceOnUse" color-interpolation-filters="sRGB">
<feFlood flood-opacity="0" result="BackgroundImageFix"/>
<feColorMatrix in="SourceAlpha" type="matrix" values="0 0 0 0 0 0 0 0 0 0 0 0 0 0 0 0 0 0 127 0" result="hardAlpha"/>
<feOffset dx="0.154257" dy="0.191616"/>
<feGaussianBlur stdDeviation="0.0958082"/>
<feColorMatrix type="matrix" values="0 0 0 0 1 0 0 0 0 1 0 0 0 0 1 0 0 0 0.24 0"/>
<feBlend mode="normal" in2="BackgroundImageFix" result="effect1_dropShadow_1137_7255"/>
<feBlend mode="normal" in="SourceGraphic" in2="effect1_dropShadow_1137_7255" result="shape"/>
</filter>
<linearGradient id="paint0_linear_1137_7255" x1="12.5508" y1="13.7893" x2="13.1758" y2="4.49321" gradientUnits="userSpaceOnUse">
<stop stop-color="#3F3F3F"/>
<stop offset="1" stop-color="#5C5C5C"/>
</linearGradient>
<linearGradient id="paint1_linear_1137_7255" x1="11.7626" y1="13.2982" x2="12.3827" y2="4.33555" gradientUnits="userSpaceOnUse">
<stop stop-color="#AAAAAA"/>
<stop offset="1" stop-color="#C2C2C2"/>
</linearGradient>
<linearGradient id="paint2_linear_1137_7255" x1="10.3656" y1="11.3864" x2="10.8816" y2="3.71021" gradientUnits="userSpaceOnUse">
<stop stop-color="#3F3F3F"/>
<stop offset="1" stop-color="#5C5C5C"/>
</linearGradient>
<linearGradient id="paint3_linear_1137_7255" x1="9.72443" y1="10.9941" x2="10.2371" y2="3.58437" gradientUnits="userSpaceOnUse">
<stop stop-color="#AAAAAA"/>
<stop offset="1" stop-color="#C2C2C2"/>
</linearGradient>
<linearGradient id="paint4_linear_1137_7255" x1="94.0509" y1="91.6429" x2="144.131" y2="24.1818" gradientUnits="userSpaceOnUse">
<stop/>
<stop offset="1" stop-color="white"/>
</linearGradient>
<linearGradient id="paint5_linear_1137_7255" x1="95.0999" y1="10.3492" x2="66.1649" y2="40.5207" gradientUnits="userSpaceOnUse">
<stop stop-color="#E8EAE9"/>
<stop offset="0.498386" stop-color="#707072"/>
<stop offset="1" stop-color="#2F3032"/>
</linearGradient>
<linearGradient id="paint6_linear_1137_7255" x1="49.9807" y1="108.906" x2="76.3819" y2="54.5396" gradientUnits="userSpaceOnUse">
<stop stop-color="#E8EAE9"/>
<stop offset="0.498386" stop-color="#707072"/>
<stop offset="1" stop-color="#2F3032"/>
</linearGradient>
<linearGradient id="paint7_linear_1137_7255" x1="34.9589" y1="54.7768" x2="49.9662" y2="30.3454" gradientUnits="userSpaceOnUse">
<stop stop-color="#E8EAE9"/>
<stop offset="0.498386" stop-color="#707072"/>
<stop offset="1" stop-color="#2F3032"/>
</linearGradient>
<linearGradient id="paint8_linear_1137_7255" x1="98.8669" y1="74.3892" x2="102.096" y2="63.202" gradientUnits="userSpaceOnUse">
<stop stop-color="#ECEAEA"/>
<stop offset="1" stop-color="white" stop-opacity="0"/>
</linearGradient>
<linearGradient id="paint9_linear_1137_7255" x1="140.69" y1="52.7028" x2="126.728" y2="58.3504" gradientUnits="userSpaceOnUse">
<stop stop-color="#EBECEA"/>
<stop offset="1" stop-color="white" stop-opacity="0"/>
</linearGradient>
<linearGradient id="paint10_linear_1137_7255" x1="65.1828" y1="77.9182" x2="69.0139" y2="68.6192" gradientUnits="userSpaceOnUse">
<stop stop-color="#040404"/>
<stop offset="1" stop-color="#3C3C3C" stop-opacity="0"/>
</linearGradient>
<linearGradient id="paint11_linear_1137_7255" x1="126.104" y1="74.4096" x2="123.326" y2="69.5976" gradientUnits="userSpaceOnUse">
<stop stop-color="#4B4B4B"/>
<stop offset="0.899322" stop-opacity="0"/>
</linearGradient>
</defs>
</svg>
