<svg width="14" height="14" viewBox="0 0 14 14" fill="none" xmlns="http://www.w3.org/2000/svg">
<mask id="mask0_1137_8591" style="mask-type:alpha" maskUnits="userSpaceOnUse" x="0" y="0" width="14" height="14">
<rect width="14" height="14" fill="#D9D9D9"/>
</mask>
<g mask="url(#mask0_1137_8591)">
<path d="M4.08073 12.2503C3.7599 12.2503 3.48534 12.1362 3.25706 11.9079C3.0284 11.6792 2.91406 11.4045 2.91406 11.0837V4.66699C2.91406 4.34616 3.0284 4.0716 3.25706 3.84333C3.48534 3.61466 3.7599 3.50033 4.08073 3.50033H5.2474V1.75033C5.2474 1.55588 5.33742 1.41005 5.51748 1.31283C5.69715 1.2156 5.89878 1.16699 6.1224 1.16699H7.8724C8.09601 1.16699 8.29784 1.2156 8.4779 1.31283C8.65756 1.41005 8.7474 1.55588 8.7474 1.75033V3.50033H9.91406C10.2349 3.50033 10.5096 3.61466 10.7383 3.84333C10.9666 4.0716 11.0807 4.34616 11.0807 4.66699V11.0837C11.0807 11.4045 10.9666 11.6792 10.7383 11.9079C10.5096 12.1362 10.2349 12.2503 9.91406 12.2503C9.91406 12.4156 9.85806 12.554 9.74606 12.6657C9.63445 12.7777 9.49601 12.8337 9.33073 12.8337C9.16545 12.8337 9.02701 12.7777 8.9154 12.6657C8.8034 12.554 8.7474 12.4156 8.7474 12.2503H5.2474C5.2474 12.4156 5.19159 12.554 5.07998 12.6657C4.96798 12.7777 4.82934 12.8337 4.66406 12.8337C4.49878 12.8337 4.36015 12.7777 4.24815 12.6657C4.13653 12.554 4.08073 12.4156 4.08073 12.2503ZM6.1224 3.50033H7.8724V2.04199H6.1224V3.50033ZM4.66406 10.5003H5.53906V5.25033H4.66406V10.5003ZM6.5599 10.5003H7.4349V5.25033H6.5599V10.5003ZM8.45573 10.5003H9.33073V5.25033H8.45573V10.5003Z" fill="#1C1B1F"/>
</g>
</svg>
