<svg width="20" height="20" viewBox="0 0 20 20" fill="none" xmlns="http://www.w3.org/2000/svg">
<path d="M18.7891 6.28939C18.8765 6.20229 18.9458 6.0988 18.9931 5.98484C19.0404 5.87089 19.0648 5.74872 19.0648 5.62533C19.0648 5.50194 19.0404 5.37976 18.9931 5.26581C18.9458 5.15186 18.8765 5.04836 18.7891 4.96126L16.9141 3.08626C16.7371 2.91164 16.4986 2.81374 16.25 2.81374C16.0014 2.81374 15.7628 2.91164 15.5859 3.08626C15.4985 3.17336 15.4292 3.27686 15.3819 3.39081C15.3346 3.50476 15.3102 3.62694 15.3102 3.75033C15.3102 3.87372 15.3346 3.99589 15.3819 4.10984C15.4292 4.2238 15.4985 4.32729 15.5859 4.41439L15.8594 4.68783H15.6953C14.7511 4.68878 13.8207 4.91461 12.9811 5.34664C12.1415 5.77866 11.4168 6.40445 10.8672 7.1722L7.60937 11.7347C7.23338 12.2606 6.73752 12.6894 6.16284 12.9856C5.58816 13.2818 4.9512 13.4368 4.30469 13.4378H2.5C2.25136 13.4378 2.0129 13.5366 1.83709 13.7124C1.66127 13.8882 1.5625 14.1267 1.5625 14.3753C1.5625 14.624 1.66127 14.8624 1.83709 15.0382C2.0129 15.2141 2.25136 15.3128 2.5 15.3128H4.30469C5.24891 15.3119 6.17934 15.086 7.01893 14.654C7.85853 14.222 8.58315 13.5962 9.13281 12.8285L12.3906 8.26595C12.7666 7.74002 13.2625 7.31122 13.8372 7.01505C14.4118 6.71888 15.0488 6.56386 15.6953 6.56283H15.8594L15.5859 6.83626C15.4098 7.01239 15.3109 7.25126 15.3109 7.50033C15.3109 7.7494 15.4098 7.98827 15.5859 8.16439C15.7621 8.34051 16.0009 8.43945 16.25 8.43945C16.4991 8.43945 16.7379 8.34051 16.9141 8.16439L18.7891 6.28939ZM11.3203 11.9613C11.4901 11.8096 11.7099 11.7261 11.9375 11.7269C12.0707 11.7273 12.2024 11.756 12.3236 11.8112C12.4448 11.8665 12.5529 11.9469 12.6406 12.0472C13.021 12.4836 13.4904 12.8336 14.0173 13.0734C14.5442 13.3133 15.1164 13.4375 15.6953 13.4378H15.8594L15.5859 13.1644C15.4985 13.0773 15.4292 12.9738 15.3819 12.8598C15.3346 12.7459 15.3102 12.6237 15.3102 12.5003C15.3102 12.3769 15.3346 12.2548 15.3819 12.1408C15.4292 12.0269 15.4985 11.9234 15.5859 11.8363C15.7628 11.6616 16.0014 11.5637 16.25 11.5637C16.4986 11.5637 16.7371 11.6616 16.9141 11.8363L18.7891 13.7113C18.8765 13.7984 18.9458 13.9019 18.9931 14.0158C19.0404 14.1298 19.0648 14.2519 19.0648 14.3753C19.0648 14.4987 19.0404 14.6209 18.9931 14.7348C18.9458 14.8488 18.8765 14.9523 18.7891 15.0394L16.9141 16.9144C16.7379 17.0905 16.4991 17.1895 16.25 17.1895C16.0009 17.1895 15.7621 17.0905 15.5859 16.9144C15.4098 16.7383 15.3109 16.4994 15.3109 16.2503C15.3109 16.0013 15.4098 15.7624 15.5859 15.5863L15.8594 15.3128H15.6953C14.8488 15.3114 14.0124 15.1295 13.2418 14.7792C12.4712 14.429 11.7842 13.9184 11.2266 13.2816C11.0643 13.0939 10.9831 12.8495 11.0006 12.602C11.0182 12.3546 11.1332 12.1241 11.3203 11.9613ZM8.67969 8.03939C8.49299 8.20259 8.24924 8.28518 8.00178 8.26907C7.75433 8.25297 7.52334 8.13948 7.35937 7.95345C6.979 7.51702 6.50957 7.1671 5.98267 6.92723C5.45577 6.68737 4.88362 6.56311 4.30469 6.56283H2.5C2.25136 6.56283 2.0129 6.46406 1.83709 6.28824C1.66127 6.11242 1.5625 5.87397 1.5625 5.62533C1.5625 5.37669 1.66127 5.13823 1.83709 4.96241C2.0129 4.7866 2.25136 4.68783 2.5 4.68783H4.30469C5.15115 4.68924 5.98758 4.87115 6.75817 5.22142C7.52876 5.57169 8.21579 6.08226 8.77344 6.71908C8.9357 6.90677 9.01694 7.15112 8.99937 7.3986C8.9818 7.64609 8.86684 7.87651 8.67969 8.03939Z" fill="black"/>
</svg>
