<svg width="7" height="9" viewBox="0 0 7 9" fill="none" xmlns="http://www.w3.org/2000/svg">
<path d="M0.882406 9V6.036H0.186406V5.148H0.882406V4.284H0.186406V3.396H0.882406V0.431999H2.76641L3.70241 3.396H4.79441V0.431999H6.12641V3.396H6.81041V4.284H6.12641V5.148H6.81041V6.036H6.12641V9H4.23041L3.27041 6.036H2.21441V9H0.882406ZM2.21441 5.148H3.00641L2.74241 4.284H2.19041L2.21441 5.148ZM4.83041 7.128H4.89041L4.84241 6.036H4.51841L4.83041 7.128ZM2.16641 3.396H2.50241L2.15441 2.244H2.10641L2.16641 3.396ZM4.26641 5.148H4.81841L4.79441 4.284H3.99041L4.26641 5.148Z" fill="#1B1B1B"/>
</svg>
