<svg width="14" height="14" viewBox="0 0 14 14" fill="none" xmlns="http://www.w3.org/2000/svg">
<mask id="mask0_1137_8597" style="mask-type:alpha" maskUnits="userSpaceOnUse" x="0" y="0" width="14" height="14">
<rect width="14" height="14" fill="#D9D9D9"/>
</mask>
<g mask="url(#mask0_1137_8597)">
<path d="M0.582031 11.6668V10.0335C0.582031 9.70294 0.667198 9.39902 0.837531 9.12175C1.00748 8.84486 1.23342 8.6335 1.51536 8.48766C2.11814 8.18627 2.73064 7.96013 3.35286 7.80925C3.97509 7.65875 4.60703 7.5835 5.2487 7.5835C5.89036 7.5835 6.52231 7.65875 7.14453 7.80925C7.76675 7.96013 8.37925 8.18627 8.98203 8.48766C9.26398 8.6335 9.48992 8.84486 9.65986 9.12175C9.8302 9.39902 9.91536 9.70294 9.91536 10.0335V11.6668H0.582031ZM11.082 11.6668V9.91683C11.082 9.48905 10.963 9.07819 10.725 8.68425C10.4866 8.29069 10.1487 7.95294 9.7112 7.671C10.207 7.72933 10.6737 7.82888 11.1112 7.96966C11.5487 8.11083 11.957 8.2835 12.3362 8.48766C12.6862 8.68211 12.9536 8.89833 13.1383 9.13633C13.323 9.37472 13.4154 9.63488 13.4154 9.91683V11.6668H11.082ZM5.2487 7.00016C4.60703 7.00016 4.05773 6.77169 3.60078 6.31475C3.14384 5.8578 2.91536 5.3085 2.91536 4.66683C2.91536 4.02516 3.14384 3.47586 3.60078 3.01891C4.05773 2.56197 4.60703 2.3335 5.2487 2.3335C5.89036 2.3335 6.43967 2.56197 6.89661 3.01891C7.35356 3.47586 7.58203 4.02516 7.58203 4.66683C7.58203 5.3085 7.35356 5.8578 6.89661 6.31475C6.43967 6.77169 5.89036 7.00016 5.2487 7.00016ZM11.082 4.66683C11.082 5.3085 10.8536 5.8578 10.3966 6.31475C9.93967 6.77169 9.39036 7.00016 8.7487 7.00016C8.64175 7.00016 8.50564 6.98811 8.34036 6.964C8.17509 6.9395 8.03898 6.91266 7.93203 6.8835C8.19453 6.57238 8.39617 6.22725 8.53695 5.84808C8.67811 5.46891 8.7487 5.07516 8.7487 4.66683C8.7487 4.2585 8.67811 3.86475 8.53695 3.48558C8.39617 3.10641 8.19453 2.76127 7.93203 2.45016C8.06814 2.40155 8.20425 2.36986 8.34036 2.35508C8.47648 2.34069 8.61259 2.3335 8.7487 2.3335C9.39036 2.3335 9.93967 2.56197 10.3966 3.01891C10.8536 3.47586 11.082 4.02516 11.082 4.66683Z" fill="#1C1B1F"/>
</g>
</svg>
