<svg width="17" height="16" viewBox="0 0 17 16" fill="none" xmlns="http://www.w3.org/2000/svg">
<path fill-rule="evenodd" clip-rule="evenodd" d="M8.83203 16C13.2503 16 16.832 12.4183 16.832 8C16.832 3.58172 13.2503 0 8.83203 0C4.41375 0 0.832031 3.58172 0.832031 8C0.832031 12.4183 4.41375 16 8.83203 16ZM9.58203 4.75C9.58203 4.33579 9.24624 4 8.83203 4C8.41782 4 8.08203 4.33579 8.08203 4.75V7.25H5.58203C5.16782 7.25 4.83203 7.58579 4.83203 8C4.83203 8.41421 5.16782 8.75 5.58203 8.75H8.08203V11.25C8.08203 11.6642 8.41782 12 8.83203 12C9.24624 12 9.58203 11.6642 9.58203 11.25V8.75H12.082C12.4962 8.75 12.832 8.41421 12.832 8C12.832 7.58579 12.4962 7.25 12.082 7.25H9.58203V4.75Z" fill="#0F172A"/>
</svg>
