<svg width="93" height="93" viewBox="0 0 93 93" fill="none" xmlns="http://www.w3.org/2000/svg">
<path opacity="0.2" fill-rule="evenodd" clip-rule="evenodd" d="M46.5 73.625C61.4807 73.625 73.625 61.4807 73.625 46.5C73.625 31.5193 61.4807 19.375 46.5 19.375C31.5193 19.375 19.375 31.5193 19.375 46.5C19.375 61.4807 31.5193 73.625 46.5 73.625ZM46.5 85.25C67.901 85.25 85.25 67.901 85.25 46.5C85.25 25.099 67.901 7.75 46.5 7.75C25.099 7.75 7.75 25.099 7.75 46.5C7.75 67.901 25.099 85.25 46.5 85.25Z" fill="#FFCC2A"/>
<path d="M7.75 46.5C7.75 25.099 25.099 7.75 46.5 7.75V19.375C31.5193 19.375 19.375 31.5193 19.375 46.5H7.75Z" fill="#FFCC2A"/>
</svg>
