<svg width="88" height="111" viewBox="0 0 88 111" fill="none" xmlns="http://www.w3.org/2000/svg">
<path d="M8.71118e-06 90.7236L0.233739 6.41816C0.240397 4.71183 0.923632 3.07781 2.13354 1.87459C3.34345 0.671365 4.98123 -0.00279366 6.68758 8.70185e-06L70.3569 0.176526C72.0632 0.183193 73.6972 0.866428 74.9004 2.07634C76.1037 3.28625 76.7778 4.92402 76.775 6.63036L76.5413 90.9358C76.5346 92.6421 75.8514 94.2761 74.6415 95.4794C73.4316 96.6826 71.7938 97.3567 70.0875 97.3539L6.41816 97.1774C4.71183 97.1708 3.07781 96.4875 1.87459 95.2776C0.671366 94.0677 -0.00279516 92.4299 8.71118e-06 90.7236Z" fill="#BCBCBC"/>
<path d="M4.95316 65.2734L5.10342 11.0743C5.10962 9.47623 5.74948 7.9459 6.88261 6.81904C8.01573 5.69219 9.54958 5.06083 11.1476 5.06348L65.866 5.21519C67.4641 5.22138 68.9945 5.86122 70.1214 6.99434C71.2483 8.12746 71.8797 9.66131 71.8771 11.2594L71.6692 86.2797C71.6629 87.8778 71.0229 89.4081 69.8898 90.535C68.7566 91.6618 67.2227 92.2932 65.6246 92.2905L31.7277 92.1966C24.6095 92.1688 17.7928 89.3187 12.7734 84.2713C7.75391 79.224 4.9415 72.3917 4.95316 65.2734Z" fill="white"/>
<path d="M59.6013 28.8709H16.935C16.256 28.8709 15.6049 28.6012 15.1248 28.1211C14.6447 27.6411 14.375 26.9899 14.375 26.311C14.375 25.632 14.6447 24.9809 15.1248 24.5008C15.6049 24.0207 16.256 23.751 16.935 23.751H59.6013C60.2802 23.751 60.9314 24.0207 61.4115 24.5008C61.8916 24.9809 62.1613 25.632 62.1613 26.311C62.1613 26.9899 61.8916 27.6411 61.4115 28.1211C60.9314 28.6012 60.2802 28.8709 59.6013 28.8709Z" fill="#FFCC2A"/>
<path d="M26.3216 17.0662H16.935C16.256 17.0662 15.6049 16.7965 15.1248 16.3165C14.6447 15.8364 14.375 15.1852 14.375 14.5063C14.375 13.8273 14.6447 13.1762 15.1248 12.6961C15.6049 12.216 16.256 11.9463 16.935 11.9463H26.3216C27.0005 11.9463 27.6517 12.216 28.1317 12.6961C28.6118 13.1762 28.8815 13.8273 28.8815 14.5063C28.8815 15.1852 28.6118 15.8364 28.1317 16.3165C27.6517 16.7965 27.0005 17.0662 26.3216 17.0662Z" fill="#FFCC2A"/>
<path d="M59.6013 40.6751H16.935C16.256 40.6751 15.6049 40.4054 15.1248 39.9253C14.6447 39.4453 14.375 38.7941 14.375 38.1152C14.375 37.4362 14.6447 36.7851 15.1248 36.305C15.6049 35.8249 16.256 35.5552 16.935 35.5552H59.6013C60.2802 35.5552 60.9314 35.8249 61.4115 36.305C61.8916 36.7851 62.1613 37.4362 62.1613 38.1152C62.1613 38.7941 61.8916 39.4453 61.4115 39.9253C60.9314 40.4054 60.2802 40.6751 59.6013 40.6751Z" fill="#FFCC2A"/>
<path d="M59.6013 52.4798H16.935C16.256 52.4798 15.6049 52.2101 15.1248 51.73C14.6447 51.2499 14.375 50.5988 14.375 49.9198C14.375 49.2409 14.6447 48.5898 15.1248 48.1097C15.6049 47.6296 16.256 47.3599 16.935 47.3599H59.6013C60.2802 47.3599 60.9314 47.6296 61.4115 48.1097C61.8916 48.5898 62.1613 49.2409 62.1613 49.9198C62.1613 50.5988 61.8916 51.2499 61.4115 51.73C60.9314 52.2101 60.2802 52.4798 59.6013 52.4798Z" fill="#FFCC2A"/>
<path d="M68.9117 111C79.3844 111 87.8742 102.51 87.8742 92.0372C87.8742 81.5645 79.3844 73.0747 68.9117 73.0747C58.439 73.0747 49.9492 81.5645 49.9492 92.0372C49.9492 102.51 58.439 111 68.9117 111Z" fill="#05A002"/>
<path d="M66.3191 101.906C65.9916 101.906 65.6687 101.83 65.3758 101.683C65.0829 101.537 64.8282 101.324 64.6318 101.062L59.4585 94.1644C59.2919 93.9429 59.1706 93.6906 59.1016 93.4222C59.0326 93.1537 59.0171 92.8742 59.0562 92.5998C59.0952 92.3253 59.188 92.0613 59.3292 91.8227C59.4703 91.5841 59.6571 91.3757 59.8789 91.2094C60.1007 91.0431 60.3531 90.9221 60.6216 90.8534C60.8902 90.7847 61.1697 90.7696 61.4441 90.809C61.7185 90.8484 61.9824 90.9414 62.2208 91.0829C62.4592 91.2244 62.6674 91.4115 62.8334 91.6334L66.218 96.1458L74.9107 83.1069C75.0639 82.8755 75.2613 82.6766 75.4916 82.5216C75.7218 82.3666 75.9804 82.2586 76.2525 82.2037C76.5246 82.1489 76.8048 82.1482 77.0771 82.2019C77.3495 82.2555 77.6085 82.3624 77.8395 82.5164C78.0704 82.6703 78.2687 82.8684 78.4229 83.0991C78.5772 83.3298 78.6844 83.5888 78.7384 83.861C78.7925 84.1333 78.7922 84.4135 78.7377 84.6857C78.6832 84.9578 78.5755 85.2166 78.4208 85.447L68.0743 100.967C67.8871 101.247 67.6354 101.479 67.3402 101.643C67.0451 101.806 66.715 101.896 66.3778 101.905C66.3582 101.906 66.3386 101.906 66.3191 101.906Z" fill="white"/>
</svg>
