<svg width="18" height="18" viewBox="0 0 18 18" fill="none" xmlns="http://www.w3.org/2000/svg">
<path d="M16.9783 1.23266C16.8611 1.11523 16.722 1.02207 16.5687 0.958509C16.4155 0.894946 16.2512 0.862228 16.0853 0.862228C15.9194 0.862228 15.7552 0.894946 15.6019 0.958509C15.4487 1.02207 15.3095 1.11523 15.1923 1.23266L8.99833 7.41399L2.80433 1.21999C2.68706 1.10272 2.54784 1.0097 2.39462 0.946229C2.2414 0.882763 2.07718 0.850098 1.91133 0.850098C1.74548 0.850098 1.58126 0.882763 1.42804 0.946229C1.27482 1.0097 1.1356 1.10272 1.01833 1.21999C0.901059 1.33726 0.808035 1.47648 0.744569 1.6297C0.681103 1.78292 0.648437 1.94715 0.648438 2.11299C0.648438 2.27884 0.681103 2.44306 0.744569 2.59628C0.808035 2.7495 0.901059 2.88872 1.01833 3.00599L7.21233 9.19999L1.01833 15.394C0.901059 15.5113 0.808035 15.6505 0.744569 15.8037C0.681103 15.9569 0.648438 16.1211 0.648438 16.287C0.648437 16.4528 0.681103 16.6171 0.744569 16.7703C0.808035 16.9235 0.901059 17.0627 1.01833 17.18C1.1356 17.2973 1.27482 17.3903 1.42804 17.4538C1.58126 17.5172 1.74548 17.5499 1.91133 17.5499C2.07718 17.5499 2.2414 17.5172 2.39462 17.4538C2.54784 17.3903 2.68706 17.2973 2.80433 17.18L8.99833 10.986L15.1923 17.18C15.3096 17.2973 15.4488 17.3903 15.602 17.4538C15.7553 17.5172 15.9195 17.5499 16.0853 17.5499C16.2512 17.5499 16.4154 17.5172 16.5686 17.4538C16.7218 17.3903 16.8611 17.2973 16.9783 17.18C17.0956 17.0627 17.1886 16.9235 17.2521 16.7703C17.3156 16.6171 17.3482 16.4528 17.3482 16.287C17.3482 16.1211 17.3156 15.9569 17.2521 15.8037C17.1886 15.6505 17.0956 15.5113 16.9783 15.394L10.7843 9.19999L16.9783 3.00599C17.4597 2.52466 17.4597 1.71399 16.9783 1.23266Z" fill="black"/>
</svg>
