<svg width="80" height="84" viewBox="0 0 80 84" fill="none" xmlns="http://www.w3.org/2000/svg">
<g filter="url(#filter0_d_713_35214)">
<mask id="mask0_713_35214" style="mask-type:alpha" maskUnits="userSpaceOnUse" x="0" y="0" width="80" height="84">
<rect x="0.996094" width="78.4806" height="83.2856" fill="#D9D9D9"/>
</mask>
<g mask="url(#mask0_713_35214)">
<path d="M51.8502 46.707C53.2672 46.707 54.439 46.2154 55.3655 45.2321C56.292 44.2489 56.7552 43.0054 56.7552 41.5016C56.7552 39.9979 56.292 38.7544 55.3655 37.7711C54.439 36.7879 53.2672 36.2963 51.8502 36.2963C50.4332 36.2963 49.2614 36.7879 48.3349 37.7711C47.4084 38.7544 46.9451 39.9979 46.9451 41.5016C46.9451 43.0054 47.4084 44.2489 48.3349 45.2321C49.2614 46.2154 50.4332 46.707 51.8502 46.707ZM42.0401 58.8528C40.2416 58.8528 38.7025 58.1738 37.4228 56.8158C36.141 55.4554 35.5001 53.8209 35.5001 51.9123V31.0909C35.5001 29.1823 36.141 27.5478 37.4228 26.1875C38.7025 24.8295 40.2416 24.1505 42.0401 24.1505H64.9303C66.7288 24.1505 68.269 24.8295 69.5508 26.1875C70.8305 27.5478 71.4703 29.1823 71.4703 31.0909V51.9123C71.4703 53.8209 70.8305 55.4554 69.5508 56.8158C68.269 58.1738 66.7288 58.8528 64.9303 58.8528H42.0401ZM15.8799 72.7337C14.0814 72.7337 12.5412 72.0547 11.2593 70.6967C9.97968 69.3363 9.33984 67.7019 9.33984 65.7932V17.21C9.33984 15.3014 9.97968 13.6669 11.2593 12.3066C12.5412 10.9485 14.0814 10.2695 15.8799 10.2695H61.6603C63.4588 10.2695 64.999 10.9485 66.2808 12.3066C67.5605 13.6669 68.2003 15.3014 68.2003 17.21H42.0401C38.1706 17.21 35.0237 18.4963 32.5995 21.0689C30.1732 23.6438 28.96 26.9845 28.96 31.0909V51.9123C28.96 56.0188 30.1732 59.3583 32.5995 61.9309C35.0237 64.5058 38.1706 65.7932 42.0401 65.7932H68.2003C68.2003 67.7019 67.5605 69.3363 66.2808 70.6967C64.999 72.0547 63.4588 72.7337 61.6603 72.7337H15.8799Z" fill="#1B1B1B"/>
</g>
</g>
<defs>
<filter id="filter0_d_713_35214" x="5.33984" y="7.26953" width="70.1289" height="70.4639" filterUnits="userSpaceOnUse" color-interpolation-filters="sRGB">
<feFlood flood-opacity="0" result="BackgroundImageFix"/>
<feColorMatrix in="SourceAlpha" type="matrix" values="0 0 0 0 0 0 0 0 0 0 0 0 0 0 0 0 0 0 127 0" result="hardAlpha"/>
<feOffset dy="1"/>
<feGaussianBlur stdDeviation="2"/>
<feComposite in2="hardAlpha" operator="out"/>
<feColorMatrix type="matrix" values="0 0 0 0 0 0 0 0 0 0 0 0 0 0 0 0 0 0 0.25 0"/>
<feBlend mode="normal" in2="BackgroundImageFix" result="effect1_dropShadow_713_35214"/>
<feBlend mode="normal" in="SourceGraphic" in2="effect1_dropShadow_713_35214" result="shape"/>
</filter>
</defs>
</svg>
